<?xml version="1.0" encoding="UTF-8"?><svg xmlns="http://www.w3.org/2000/svg" xmlns:xlink="http://www.w3.org/1999/xlink" fill-opacity="1" color-rendering="auto" color-interpolation="auto" text-rendering="auto" stroke="black" stroke-linecap="square" width="632" stroke-miterlimit="10" shape-rendering="auto" stroke-opacity="1" fill="black" stroke-dasharray="none" font-weight="normal" stroke-width="1" height="239" font-family="'Dialog'" font-style="normal" stroke-linejoin="miter" font-size="12px" stroke-dashoffset="0" image-rendering="auto">
  <!--Generated by ySVG 2.5-->
  <defs id="genericDefs"/>
  <g>
    <defs id="defs1">
      <clipPath clipPathUnits="userSpaceOnUse" id="clipPath1">
        <path d="M0 0 L632 0 L632 239 L0 239 L0 0 Z"/>
      </clipPath>
      <clipPath clipPathUnits="userSpaceOnUse" id="clipPath2">
        <path d="M377 264 L1009 264 L1009 503 L377 503 L377 264 Z"/>
      </clipPath>
    </defs>
    <g fill="white" text-rendering="geometricPrecision" shape-rendering="geometricPrecision" transform="translate(-377,-264)" stroke="white">
      <rect x="377" width="632" height="239" y="264" clip-path="url(#clipPath2)" stroke="none"/>
    </g>
    <g fill="rgb(255,204,0)" text-rendering="geometricPrecision" shape-rendering="geometricPrecision" transform="matrix(1,0,0,1,-377,-264)" stroke="rgb(255,204,0)">
      <rect x="393.5" y="279.5" clip-path="url(#clipPath2)" width="600" rx="4" ry="4" height="50" stroke="none"/>
    </g>
    <g text-rendering="geometricPrecision" stroke-miterlimit="1.45" shape-rendering="geometricPrecision" transform="matrix(1,0,0,1,-377,-264)" stroke-linecap="butt">
      <rect x="393.5" y="279.5" clip-path="url(#clipPath2)" fill="none" width="600" rx="4" ry="4" height="50"/>
      <text x="613.5371" y="308.6543" clip-path="url(#clipPath2)" font-family="sans-serif" stroke="none" font-weight="bold" xml:space="preserve">developer's brainpower</text>
    </g>
    <g fill="rgb(255,204,0)" text-rendering="geometricPrecision" shape-rendering="geometricPrecision" transform="matrix(1,0,0,1,-377,-264)" stroke="rgb(255,204,0)">
      <rect x="393.5" y="357.5" clip-path="url(#clipPath2)" width="600" rx="4" ry="4" height="50" stroke="none"/>
    </g>
    <g text-rendering="geometricPrecision" stroke-miterlimit="1.45" shape-rendering="geometricPrecision" transform="matrix(1,0,0,1,-377,-264)" stroke-linecap="butt">
      <rect x="393.5" y="357.5" clip-path="url(#clipPath2)" fill="none" width="600" rx="4" ry="4" height="50"/>
    </g>
    <g fill="lime" text-rendering="geometricPrecision" shape-rendering="geometricPrecision" transform="matrix(1,0,0,1,-377,-264)" stroke="lime">
      <rect x="813.5" y="357.5" clip-path="url(#clipPath2)" width="180" rx="4" ry="4" height="50" stroke="none"/>
    </g>
    <g text-rendering="geometricPrecision" stroke-miterlimit="1.45" shape-rendering="geometricPrecision" transform="matrix(1,0,0,1,-377,-264)" stroke-linecap="butt">
      <rect x="813.5" y="357.5" clip-path="url(#clipPath2)" fill="none" width="180" rx="4" ry="4" height="50"/>
      <text x="853.1006" y="379.6699" clip-path="url(#clipPath2)" font-family="sans-serif" stroke="none" font-weight="bold" xml:space="preserve">brainpower for</text>
      <text x="828.8281" y="393.6387" clip-path="url(#clipPath2)" font-family="sans-serif" stroke="none" font-weight="bold" xml:space="preserve">customer functionalty</text>
    </g>
    <g fill="rgb(255,153,204)" text-rendering="geometricPrecision" shape-rendering="geometricPrecision" transform="matrix(1,0,0,1,-377,-264)" stroke="rgb(255,153,204)">
      <rect x="393.5" y="357.5" clip-path="url(#clipPath2)" width="420" rx="4" ry="4" height="50" stroke="none"/>
    </g>
    <g text-rendering="geometricPrecision" stroke-miterlimit="1.45" shape-rendering="geometricPrecision" transform="matrix(1,0,0,1,-377,-264)" stroke-linecap="butt">
      <rect x="393.5" y="357.5" clip-path="url(#clipPath2)" fill="none" width="420" rx="4" ry="4" height="50"/>
      <text x="508.8242" y="379.6699" clip-path="url(#clipPath2)" font-family="sans-serif" stroke="none" font-weight="bold" xml:space="preserve">brainpower needed to solve</text>
      <text x="497.6182" y="393.6387" clip-path="url(#clipPath2)" font-family="sans-serif" stroke="none" font-weight="bold" xml:space="preserve">problems in complex language </text>
    </g>
    <g fill="rgb(255,204,0)" text-rendering="geometricPrecision" shape-rendering="geometricPrecision" transform="matrix(1,0,0,1,-377,-264)" stroke="rgb(255,204,0)">
      <rect x="393.5" y="437.5" clip-path="url(#clipPath2)" width="600" rx="4" ry="4" height="50" stroke="none"/>
    </g>
    <g text-rendering="geometricPrecision" stroke-miterlimit="1.45" shape-rendering="geometricPrecision" transform="matrix(1,0,0,1,-377,-264)" stroke-linecap="butt">
      <rect x="393.5" y="437.5" clip-path="url(#clipPath2)" fill="none" width="600" rx="4" ry="4" height="50"/>
    </g>
    <g fill="lime" text-rendering="geometricPrecision" shape-rendering="geometricPrecision" transform="matrix(1,0,0,1,-377,-264)" stroke="lime">
      <rect x="603.5" y="437.5" clip-path="url(#clipPath2)" width="390" rx="4" ry="4" height="50" stroke="none"/>
    </g>
    <g text-rendering="geometricPrecision" stroke-miterlimit="1.45" shape-rendering="geometricPrecision" transform="matrix(1,0,0,1,-377,-264)" stroke-linecap="butt">
      <rect x="603.5" y="437.5" clip-path="url(#clipPath2)" fill="none" width="390" rx="4" ry="4" height="50"/>
      <text x="748.1006" y="459.6699" clip-path="url(#clipPath2)" font-family="sans-serif" stroke="none" font-weight="bold" xml:space="preserve">brainpower for</text>
      <text x="723.8281" y="473.6387" clip-path="url(#clipPath2)" font-family="sans-serif" stroke="none" font-weight="bold" xml:space="preserve">customer functionalty</text>
    </g>
    <g fill="rgb(255,153,204)" text-rendering="geometricPrecision" shape-rendering="geometricPrecision" transform="matrix(1,0,0,1,-377,-264)" stroke="rgb(255,153,204)">
      <rect x="393.5" y="437.5" clip-path="url(#clipPath2)" width="210" rx="4" ry="4" height="50" stroke="none"/>
    </g>
    <g text-rendering="geometricPrecision" stroke-miterlimit="1.45" shape-rendering="geometricPrecision" transform="matrix(1,0,0,1,-377,-264)" stroke-linecap="butt">
      <rect x="393.5" y="437.5" clip-path="url(#clipPath2)" fill="none" width="210" rx="4" ry="4" height="50"/>
      <text x="403.8242" y="459.6699" clip-path="url(#clipPath2)" font-family="sans-serif" stroke="none" font-weight="bold" xml:space="preserve">brainpower needed to solve</text>
      <text x="394.8652" y="473.6387" clip-path="url(#clipPath2)" font-family="sans-serif" stroke="none" font-weight="bold" xml:space="preserve">problems in 'simple' language </text>
    </g>
  </g>
</svg>
