<?xml version="1.0" encoding="UTF-8"?><svg xmlns="http://www.w3.org/2000/svg" xmlns:xlink="http://www.w3.org/1999/xlink" fill-opacity="1" color-rendering="auto" color-interpolation="auto" text-rendering="auto" stroke="black" stroke-linecap="square" width="747" stroke-miterlimit="10" shape-rendering="auto" stroke-opacity="1" fill="black" stroke-dasharray="none" font-weight="normal" stroke-width="1" height="440" font-family="'Dialog'" font-style="normal" stroke-linejoin="miter" font-size="12px" stroke-dashoffset="0" image-rendering="auto">
  <!--Generated by ySVG 2.5-->
  <defs id="genericDefs"/>
  <g>
    <defs id="defs1">
      <clipPath clipPathUnits="userSpaceOnUse" id="clipPath1">
        <path d="M0 0 L747 0 L747 440 L0 440 L0 0 Z"/>
      </clipPath>
      <clipPath clipPathUnits="userSpaceOnUse" id="clipPath2">
        <path d="M101 -367 L848 -367 L848 73 L101 73 L101 -367 Z"/>
      </clipPath>
    </defs>
    <g fill="white" text-rendering="geometricPrecision" shape-rendering="geometricPrecision" transform="translate(-101,367)" stroke="white">
      <rect x="101" width="747" height="440" y="-367" clip-path="url(#clipPath2)" stroke="none"/>
    </g>
    <g fill="silver" text-rendering="geometricPrecision" shape-rendering="geometricPrecision" transform="matrix(1,0,0,1,-101,367)" stroke="silver">
      <rect x="117" width="160" height="408.667" y="-351.4609" clip-path="url(#clipPath2)" stroke="none"/>
      <rect x="121" width="20.0137" height="17.9688" y="-347.4609" clip-path="url(#clipPath2)" stroke="none"/>
    </g>
    <g text-rendering="geometricPrecision" stroke-miterlimit="1.45" shape-rendering="geometricPrecision" font-family="sans-serif" transform="matrix(1,0,0,1,-101,367)" stroke-linecap="butt">
      <text x="123" xml:space="preserve" y="-334.3222" clip-path="url(#clipPath2)" stroke="none">C2</text>
      <rect fill="none" x="117" width="160" height="408.667" y="-351.4609" clip-path="url(#clipPath2)"/>
    </g>
    <g fill="gray" text-rendering="geometricPrecision" shape-rendering="geometricPrecision" transform="matrix(1,0,0,1,-101,367)" stroke="gray">
      <rect x="127" width="140" height="102" y="-55.1835" clip-path="url(#clipPath2)" stroke="none"/>
    </g>
    <g text-rendering="geometricPrecision" stroke-miterlimit="1.45" shape-rendering="geometricPrecision" transform="matrix(1,0,0,1,-101,367)" stroke-linecap="butt">
      <rect fill="none" x="127" width="140" height="102" y="-55.1835" clip-path="url(#clipPath2)"/>
    </g>
    <g fill="gray" text-rendering="geometricPrecision" shape-rendering="geometricPrecision" transform="matrix(1,0,0,1,-101,367)" stroke="gray">
      <rect x="127" width="140" height="102" y="-193.7774" clip-path="url(#clipPath2)" stroke="none"/>
    </g>
    <g text-rendering="geometricPrecision" stroke-miterlimit="1.45" shape-rendering="geometricPrecision" transform="matrix(1,0,0,1,-101,367)" stroke-linecap="butt">
      <rect fill="none" x="127" width="140" height="102" y="-193.7774" clip-path="url(#clipPath2)"/>
    </g>
    <g fill="gray" text-rendering="geometricPrecision" shape-rendering="geometricPrecision" transform="matrix(1,0,0,1,-101,367)" stroke="gray">
      <rect x="127" width="140" height="102" y="-330.5744" clip-path="url(#clipPath2)" stroke="none"/>
    </g>
    <g text-rendering="geometricPrecision" stroke-miterlimit="1.45" shape-rendering="geometricPrecision" transform="matrix(1,0,0,1,-101,367)" stroke-linecap="butt">
      <rect fill="none" x="127" width="140" height="102" y="-330.5744" clip-path="url(#clipPath2)"/>
    </g>
    <g fill="rgb(255,204,0)" text-rendering="geometricPrecision" shape-rendering="geometricPrecision" transform="matrix(1,0,0,1,-101,367)" stroke="rgb(255,204,0)">
      <rect x="132" y="-326.8713" clip-path="url(#clipPath2)" width="130" rx="4" ry="4" height="26" stroke="none"/>
    </g>
    <g text-rendering="geometricPrecision" stroke-miterlimit="1.45" shape-rendering="geometricPrecision" font-family="sans-serif" transform="matrix(1,0,0,1,-101,367)" stroke-linecap="butt">
      <text x="187.8623" xml:space="preserve" y="-309.717" clip-path="url(#clipPath2)" stroke="none">file</text>
      <rect x="132" y="-326.8713" clip-path="url(#clipPath2)" fill="none" width="130" rx="4" ry="4" height="26"/>
    </g>
    <g fill="rgb(255,204,0)" text-rendering="geometricPrecision" shape-rendering="geometricPrecision" transform="matrix(1,0,0,1,-101,367)" stroke="rgb(255,204,0)">
      <rect x="132" y="-294.3713" clip-path="url(#clipPath2)" width="130" rx="4" ry="4" height="26" stroke="none"/>
    </g>
    <g text-rendering="geometricPrecision" stroke-miterlimit="1.45" shape-rendering="geometricPrecision" font-family="sans-serif" transform="matrix(1,0,0,1,-101,367)" stroke-linecap="butt">
      <text x="187.8623" xml:space="preserve" y="-277.217" clip-path="url(#clipPath2)" stroke="none">file</text>
      <rect x="132" y="-294.3713" clip-path="url(#clipPath2)" fill="none" width="130" rx="4" ry="4" height="26"/>
    </g>
    <g fill="rgb(255,204,0)" text-rendering="geometricPrecision" shape-rendering="geometricPrecision" transform="matrix(1,0,0,1,-101,367)" stroke="rgb(255,204,0)">
      <rect x="132" y="-261.8713" clip-path="url(#clipPath2)" width="130" rx="4" ry="4" height="26" stroke="none"/>
    </g>
    <g text-rendering="geometricPrecision" stroke-miterlimit="1.45" shape-rendering="geometricPrecision" font-family="sans-serif" transform="matrix(1,0,0,1,-101,367)" stroke-linecap="butt">
      <text x="187.8623" xml:space="preserve" y="-244.717" clip-path="url(#clipPath2)" stroke="none">file</text>
      <rect x="132" y="-261.8713" clip-path="url(#clipPath2)" fill="none" width="130" rx="4" ry="4" height="26"/>
    </g>
    <g fill="rgb(255,204,0)" text-rendering="geometricPrecision" shape-rendering="geometricPrecision" transform="matrix(1,0,0,1,-101,367)" stroke="rgb(255,204,0)">
      <rect x="132" y="-188.2774" clip-path="url(#clipPath2)" width="130" rx="4" ry="4" height="26" stroke="none"/>
    </g>
    <g text-rendering="geometricPrecision" stroke-miterlimit="1.45" shape-rendering="geometricPrecision" font-family="sans-serif" transform="matrix(1,0,0,1,-101,367)" stroke-linecap="butt">
      <text x="187.8623" xml:space="preserve" y="-171.1231" clip-path="url(#clipPath2)" stroke="none">file</text>
      <rect x="132" y="-188.2774" clip-path="url(#clipPath2)" fill="none" width="130" rx="4" ry="4" height="26"/>
    </g>
    <g fill="rgb(255,204,0)" text-rendering="geometricPrecision" shape-rendering="geometricPrecision" transform="matrix(1,0,0,1,-101,367)" stroke="rgb(255,204,0)">
      <rect x="132" y="-155.7774" clip-path="url(#clipPath2)" width="130" rx="4" ry="4" height="26" stroke="none"/>
    </g>
    <g text-rendering="geometricPrecision" stroke-miterlimit="1.45" shape-rendering="geometricPrecision" font-family="sans-serif" transform="matrix(1,0,0,1,-101,367)" stroke-linecap="butt">
      <text x="187.8623" xml:space="preserve" y="-138.6231" clip-path="url(#clipPath2)" stroke="none">file</text>
      <rect x="132" y="-155.7774" clip-path="url(#clipPath2)" fill="none" width="130" rx="4" ry="4" height="26"/>
    </g>
    <g fill="rgb(255,204,0)" text-rendering="geometricPrecision" shape-rendering="geometricPrecision" transform="matrix(1,0,0,1,-101,367)" stroke="rgb(255,204,0)">
      <rect x="132" y="-123.2774" clip-path="url(#clipPath2)" width="130" rx="4" ry="4" height="26" stroke="none"/>
    </g>
    <g text-rendering="geometricPrecision" stroke-miterlimit="1.45" shape-rendering="geometricPrecision" font-family="sans-serif" transform="matrix(1,0,0,1,-101,367)" stroke-linecap="butt">
      <text x="187.8623" xml:space="preserve" y="-106.1231" clip-path="url(#clipPath2)" stroke="none">file</text>
      <rect x="132" y="-123.2774" clip-path="url(#clipPath2)" fill="none" width="130" rx="4" ry="4" height="26"/>
    </g>
    <g fill="rgb(255,204,0)" text-rendering="geometricPrecision" shape-rendering="geometricPrecision" transform="matrix(1,0,0,1,-101,367)" stroke="rgb(255,204,0)">
      <rect x="132" y="-49.6835" clip-path="url(#clipPath2)" width="130" rx="4" ry="4" height="26" stroke="none"/>
    </g>
    <g text-rendering="geometricPrecision" stroke-miterlimit="1.45" shape-rendering="geometricPrecision" font-family="sans-serif" transform="matrix(1,0,0,1,-101,367)" stroke-linecap="butt">
      <text x="187.8623" xml:space="preserve" y="-32.5292" clip-path="url(#clipPath2)" stroke="none">file</text>
      <rect x="132" y="-49.6835" clip-path="url(#clipPath2)" fill="none" width="130" rx="4" ry="4" height="26"/>
    </g>
    <g fill="rgb(255,204,0)" text-rendering="geometricPrecision" shape-rendering="geometricPrecision" transform="matrix(1,0,0,1,-101,367)" stroke="rgb(255,204,0)">
      <rect x="132" y="-17.1835" clip-path="url(#clipPath2)" width="130" rx="4" ry="4" height="26" stroke="none"/>
    </g>
    <g text-rendering="geometricPrecision" stroke-miterlimit="1.45" shape-rendering="geometricPrecision" font-family="sans-serif" transform="matrix(1,0,0,1,-101,367)" stroke-linecap="butt">
      <text x="187.8623" xml:space="preserve" y="-0.0292" clip-path="url(#clipPath2)" stroke="none">file</text>
      <rect x="132" y="-17.1835" clip-path="url(#clipPath2)" fill="none" width="130" rx="4" ry="4" height="26"/>
    </g>
    <g fill="rgb(255,204,0)" text-rendering="geometricPrecision" shape-rendering="geometricPrecision" transform="matrix(1,0,0,1,-101,367)" stroke="rgb(255,204,0)">
      <rect x="132" y="15.3165" clip-path="url(#clipPath2)" width="130" rx="4" ry="4" height="26" stroke="none"/>
    </g>
    <g text-rendering="geometricPrecision" stroke-miterlimit="1.45" shape-rendering="geometricPrecision" font-family="sans-serif" transform="matrix(1,0,0,1,-101,367)" stroke-linecap="butt">
      <text x="187.8623" xml:space="preserve" y="32.4708" clip-path="url(#clipPath2)" stroke="none">file</text>
      <rect x="132" y="15.3165" clip-path="url(#clipPath2)" fill="none" width="130" rx="4" ry="4" height="26"/>
    </g>
    <g fill="silver" text-rendering="geometricPrecision" shape-rendering="geometricPrecision" transform="matrix(1,0,0,1,-101,367)" stroke="silver">
      <rect x="672.972" width="160" height="63.667" y="-186.9444" clip-path="url(#clipPath2)" stroke="none"/>
      <rect x="676.972" width="37.5391" height="17.9688" y="-182.9444" clip-path="url(#clipPath2)" stroke="none"/>
    </g>
    <g text-rendering="geometricPrecision" stroke-miterlimit="1.45" shape-rendering="geometricPrecision" font-family="sans-serif" transform="matrix(1,0,0,1,-101,367)" stroke-linecap="butt">
      <text x="678.972" xml:space="preserve" y="-169.8057" clip-path="url(#clipPath2)" stroke="none">linker</text>
      <rect fill="none" x="672.972" width="160" height="63.667" y="-186.9444" clip-path="url(#clipPath2)"/>
    </g>
    <g fill="rgb(255,153,0)" text-rendering="geometricPrecision" shape-rendering="geometricPrecision" transform="matrix(1,0,0,1,-101,367)" stroke="rgb(255,153,0)">
      <rect x="686.572" y="-161.9044" clip-path="url(#clipPath2)" width="130" rx="4" ry="4" height="26" stroke="none"/>
    </g>
    <g text-rendering="geometricPrecision" stroke-miterlimit="1.45" shape-rendering="geometricPrecision" font-family="sans-serif" transform="matrix(1,0,0,1,-101,367)" stroke-linecap="butt">
      <text x="733.1296" xml:space="preserve" y="-144.7501" clip-path="url(#clipPath2)" stroke="none">bin/lib</text>
      <rect x="686.572" y="-161.9044" clip-path="url(#clipPath2)" fill="none" width="130" rx="4" ry="4" height="26"/>
    </g>
    <g fill="silver" text-rendering="geometricPrecision" shape-rendering="geometricPrecision" transform="matrix(1,0,0,1,-101,367)" stroke="silver">
      <rect x="302.324" width="160" height="408.667" y="-351.4609" clip-path="url(#clipPath2)" stroke="none"/>
      <rect x="306.324" width="35.9336" height="17.9688" y="-347.4609" clip-path="url(#clipPath2)" stroke="none"/>
    </g>
    <g text-rendering="geometricPrecision" stroke-miterlimit="1.45" shape-rendering="geometricPrecision" font-family="sans-serif" transform="matrix(1,0,0,1,-101,367)" stroke-linecap="butt">
      <text x="308.324" xml:space="preserve" y="-334.3222" clip-path="url(#clipPath2)" stroke="none">LLVM</text>
      <rect fill="none" x="302.324" width="160" height="408.667" y="-351.4609" clip-path="url(#clipPath2)"/>
    </g>
    <g fill="rgb(153,204,0)" text-rendering="geometricPrecision" shape-rendering="geometricPrecision" transform="matrix(1,0,0,1,-101,367)" stroke="rgb(153,204,0)">
      <rect x="317.324" y="-294.3713" clip-path="url(#clipPath2)" width="130" rx="4" ry="4" height="26" stroke="none"/>
    </g>
    <g text-rendering="geometricPrecision" stroke-miterlimit="1.45" shape-rendering="geometricPrecision" font-family="sans-serif" transform="matrix(1,0,0,1,-101,367)" stroke-linecap="butt">
      <text x="342.6326" xml:space="preserve" y="-277.217" clip-path="url(#clipPath2)" stroke="none">LLVM Module</text>
      <rect x="317.324" y="-294.3713" clip-path="url(#clipPath2)" fill="none" width="130" rx="4" ry="4" height="26"/>
    </g>
    <g fill="rgb(153,204,0)" text-rendering="geometricPrecision" shape-rendering="geometricPrecision" transform="matrix(1,0,0,1,-101,367)" stroke="rgb(153,204,0)">
      <rect x="317.324" y="-155.7774" clip-path="url(#clipPath2)" width="130" rx="4" ry="4" height="26" stroke="none"/>
    </g>
    <g text-rendering="geometricPrecision" stroke-miterlimit="1.45" shape-rendering="geometricPrecision" font-family="sans-serif" transform="matrix(1,0,0,1,-101,367)" stroke-linecap="butt">
      <text x="342.6326" xml:space="preserve" y="-138.6231" clip-path="url(#clipPath2)" stroke="none">LLVM Module</text>
      <rect x="317.324" y="-155.7774" clip-path="url(#clipPath2)" fill="none" width="130" rx="4" ry="4" height="26"/>
    </g>
    <g fill="rgb(153,204,0)" text-rendering="geometricPrecision" shape-rendering="geometricPrecision" transform="matrix(1,0,0,1,-101,367)" stroke="rgb(153,204,0)">
      <rect x="317.324" y="-17.1835" clip-path="url(#clipPath2)" width="130" rx="4" ry="4" height="26" stroke="none"/>
    </g>
    <g text-rendering="geometricPrecision" stroke-miterlimit="1.45" shape-rendering="geometricPrecision" font-family="sans-serif" transform="matrix(1,0,0,1,-101,367)" stroke-linecap="butt">
      <text x="342.6326" xml:space="preserve" y="-0.0292" clip-path="url(#clipPath2)" stroke="none">LLVM Module</text>
      <rect x="317.324" y="-17.1835" clip-path="url(#clipPath2)" fill="none" width="130" rx="4" ry="4" height="26"/>
    </g>
    <g fill="silver" text-rendering="geometricPrecision" shape-rendering="geometricPrecision" transform="matrix(1,0,0,1,-101,367)" stroke="silver">
      <rect x="487.648" width="160" height="408.667" y="-351.4609" clip-path="url(#clipPath2)" stroke="none"/>
      <rect x="491.648" width="91.3867" height="17.9688" y="-347.4609" clip-path="url(#clipPath2)" stroke="none"/>
    </g>
    <g text-rendering="geometricPrecision" stroke-miterlimit="1.45" shape-rendering="geometricPrecision" font-family="sans-serif" transform="matrix(1,0,0,1,-101,367)" stroke-linecap="butt">
      <text x="493.648" xml:space="preserve" y="-334.3222" clip-path="url(#clipPath2)" stroke="none">LLVM-backend</text>
      <rect fill="none" x="487.648" width="160" height="408.667" y="-351.4609" clip-path="url(#clipPath2)"/>
    </g>
    <g fill="rgb(51,204,204)" text-rendering="geometricPrecision" shape-rendering="geometricPrecision" transform="matrix(1,0,0,1,-101,367)" stroke="rgb(51,204,204)">
      <rect x="502.648" y="-294.3713" clip-path="url(#clipPath2)" width="130" rx="4" ry="4" height="26" stroke="none"/>
    </g>
    <g text-rendering="geometricPrecision" stroke-miterlimit="1.45" shape-rendering="geometricPrecision" font-family="sans-serif" transform="matrix(1,0,0,1,-101,367)" stroke-linecap="butt">
      <text x="539.5845" xml:space="preserve" y="-277.217" clip-path="url(#clipPath2)" stroke="none">module.o</text>
      <rect x="502.648" y="-294.3713" clip-path="url(#clipPath2)" fill="none" width="130" rx="4" ry="4" height="26"/>
    </g>
    <g fill="rgb(51,204,204)" text-rendering="geometricPrecision" shape-rendering="geometricPrecision" transform="matrix(1,0,0,1,-101,367)" stroke="rgb(51,204,204)">
      <rect x="502.648" y="-155.7774" clip-path="url(#clipPath2)" width="130" rx="4" ry="4" height="26" stroke="none"/>
    </g>
    <g text-rendering="geometricPrecision" stroke-miterlimit="1.45" shape-rendering="geometricPrecision" font-family="sans-serif" transform="matrix(1,0,0,1,-101,367)" stroke-linecap="butt">
      <text x="539.5845" xml:space="preserve" y="-138.6231" clip-path="url(#clipPath2)" stroke="none">module.o</text>
      <rect x="502.648" y="-155.7774" clip-path="url(#clipPath2)" fill="none" width="130" rx="4" ry="4" height="26"/>
    </g>
    <g fill="rgb(51,204,204)" text-rendering="geometricPrecision" shape-rendering="geometricPrecision" transform="matrix(1,0,0,1,-101,367)" stroke="rgb(51,204,204)">
      <rect x="502.648" y="-17.1835" clip-path="url(#clipPath2)" width="130" rx="4" ry="4" height="26" stroke="none"/>
    </g>
    <g text-rendering="geometricPrecision" stroke-miterlimit="1.45" shape-rendering="geometricPrecision" font-family="sans-serif" transform="matrix(1,0,0,1,-101,367)" stroke-linecap="butt">
      <text x="539.5845" xml:space="preserve" y="-0.0292" clip-path="url(#clipPath2)" stroke="none">module.o</text>
      <rect x="502.648" y="-17.1835" clip-path="url(#clipPath2)" fill="none" width="130" rx="4" ry="4" height="26"/>
      <path fill="none" d="M267 -280.2531 L309.3138 -280.6634" clip-path="url(#clipPath2)"/>
      <path d="M317.3135 -280.741 L305.2656 -285.6244 L308.3139 -280.6537 L305.3625 -275.6248 Z" clip-path="url(#clipPath2)" stroke="none"/>
      <path fill="none" d="M267 -142.7774 L309.3135 -142.7774" clip-path="url(#clipPath2)"/>
      <path d="M317.3135 -142.7774 L305.3135 -147.7774 L308.3135 -142.7774 L305.3135 -137.7774 Z" clip-path="url(#clipPath2)" stroke="none"/>
      <path fill="none" d="M267 -4.1835 L309.3135 -4.1835" clip-path="url(#clipPath2)"/>
      <path d="M317.3135 -4.1835 L305.3135 -9.1835 L308.3135 -4.1835 L305.3135 0.8165 Z" clip-path="url(#clipPath2)" stroke="none"/>
      <path fill="none" d="M647.648 -147.9003 L678.5945 -148.1993" clip-path="url(#clipPath2)"/>
      <path d="M686.5941 -148.2766 L674.5464 -153.1604 L677.5945 -148.1896 L674.643 -143.1609 Z" clip-path="url(#clipPath2)" stroke="none"/>
      <path fill="none" d="M447.3412 -281.3713 L494.6483 -281.3713" clip-path="url(#clipPath2)"/>
      <path d="M502.6483 -281.3713 L490.6483 -286.3713 L493.6483 -281.3713 L490.6483 -276.3713 Z" clip-path="url(#clipPath2)" stroke="none"/>
      <path fill="none" d="M447.3412 -142.7774 L494.6483 -142.7774" clip-path="url(#clipPath2)"/>
      <path d="M502.6483 -142.7774 L490.6483 -147.7774 L493.6483 -142.7774 L490.6483 -137.7774 Z" clip-path="url(#clipPath2)" stroke="none"/>
      <path fill="none" d="M447.3412 -4.1835 L494.6483 -4.1835" clip-path="url(#clipPath2)"/>
      <path d="M502.6483 -4.1835 L490.6483 -9.1835 L493.6483 -4.1835 L490.6483 0.8165 Z" clip-path="url(#clipPath2)" stroke="none"/>
    </g>
  </g>
</svg>
