<?xml version="1.0" encoding="UTF-8"?><svg xmlns="http://www.w3.org/2000/svg" xmlns:xlink="http://www.w3.org/1999/xlink" fill-opacity="1" color-rendering="auto" color-interpolation="auto" text-rendering="auto" stroke="black" stroke-linecap="square" width="747" stroke-miterlimit="10" shape-rendering="auto" stroke-opacity="1" fill="black" stroke-dasharray="none" font-weight="normal" stroke-width="1" height="440" font-family="'Dialog'" font-style="normal" stroke-linejoin="miter" font-size="12px" stroke-dashoffset="0" image-rendering="auto">
  <!--Generated by ySVG 2.5-->
  <defs id="genericDefs"/>
  <g>
    <defs id="defs1">
      <clipPath clipPathUnits="userSpaceOnUse" id="clipPath1">
        <path d="M0 0 L747 0 L747 440 L0 440 L0 0 Z"/>
      </clipPath>
      <clipPath clipPathUnits="userSpaceOnUse" id="clipPath2">
        <path d="M129 73 L876 73 L876 513 L129 513 L129 73 Z"/>
      </clipPath>
    </defs>
    <g fill="white" text-rendering="geometricPrecision" shape-rendering="geometricPrecision" transform="translate(-129,-73)" stroke="white">
      <rect x="129" width="747" height="440" y="73" clip-path="url(#clipPath2)" stroke="none"/>
    </g>
    <g fill="silver" text-rendering="geometricPrecision" shape-rendering="geometricPrecision" transform="matrix(1,0,0,1,-129,-73)" stroke="silver">
      <rect x="144.952" width="160" height="408.667" y="88.9104" clip-path="url(#clipPath2)" stroke="none"/>
      <rect x="148.952" width="12.3789" height="17.9688" y="92.9104" clip-path="url(#clipPath2)" stroke="none"/>
    </g>
    <g text-rendering="geometricPrecision" stroke-miterlimit="1.45" shape-rendering="geometricPrecision" font-family="sans-serif" transform="matrix(1,0,0,1,-129,-73)" stroke-linecap="butt">
      <text x="150.952" xml:space="preserve" y="106.0491" clip-path="url(#clipPath2)" stroke="none">C</text>
      <rect fill="none" x="144.952" width="160" height="408.667" y="88.9104" clip-path="url(#clipPath2)"/>
    </g>
    <g fill="rgb(255,204,0)" text-rendering="geometricPrecision" shape-rendering="geometricPrecision" transform="matrix(1,0,0,1,-129,-73)" stroke="rgb(255,204,0)">
      <rect x="159.952" y="113.5" clip-path="url(#clipPath2)" width="130" rx="4" ry="4" height="26" stroke="none"/>
    </g>
    <g text-rendering="geometricPrecision" stroke-miterlimit="1.45" shape-rendering="geometricPrecision" font-family="sans-serif" transform="matrix(1,0,0,1,-129,-73)" stroke-linecap="butt">
      <text x="215.8143" xml:space="preserve" y="130.6543" clip-path="url(#clipPath2)" stroke="none">file</text>
      <rect x="159.952" y="113.5" clip-path="url(#clipPath2)" fill="none" width="130" rx="4" ry="4" height="26"/>
    </g>
    <g fill="rgb(255,204,0)" text-rendering="geometricPrecision" shape-rendering="geometricPrecision" transform="matrix(1,0,0,1,-129,-73)" stroke="rgb(255,204,0)">
      <rect x="159.952" y="146" clip-path="url(#clipPath2)" width="130" rx="4" ry="4" height="26" stroke="none"/>
    </g>
    <g text-rendering="geometricPrecision" stroke-miterlimit="1.45" shape-rendering="geometricPrecision" font-family="sans-serif" transform="matrix(1,0,0,1,-129,-73)" stroke-linecap="butt">
      <text x="215.8143" xml:space="preserve" y="163.1543" clip-path="url(#clipPath2)" stroke="none">file</text>
      <rect x="159.952" y="146" clip-path="url(#clipPath2)" fill="none" width="130" rx="4" ry="4" height="26"/>
    </g>
    <g fill="rgb(255,204,0)" text-rendering="geometricPrecision" shape-rendering="geometricPrecision" transform="matrix(1,0,0,1,-129,-73)" stroke="rgb(255,204,0)">
      <rect x="159.952" y="178.5" clip-path="url(#clipPath2)" width="130" rx="4" ry="4" height="26" stroke="none"/>
    </g>
    <g text-rendering="geometricPrecision" stroke-miterlimit="1.45" shape-rendering="geometricPrecision" font-family="sans-serif" transform="matrix(1,0,0,1,-129,-73)" stroke-linecap="butt">
      <text x="215.8143" xml:space="preserve" y="195.6543" clip-path="url(#clipPath2)" stroke="none">file</text>
      <rect x="159.952" y="178.5" clip-path="url(#clipPath2)" fill="none" width="130" rx="4" ry="4" height="26"/>
    </g>
    <g fill="rgb(255,204,0)" text-rendering="geometricPrecision" shape-rendering="geometricPrecision" transform="matrix(1,0,0,1,-129,-73)" stroke="rgb(255,204,0)">
      <rect x="159.952" y="252.0939" clip-path="url(#clipPath2)" width="130" rx="4" ry="4" height="26" stroke="none"/>
    </g>
    <g text-rendering="geometricPrecision" stroke-miterlimit="1.45" shape-rendering="geometricPrecision" font-family="sans-serif" transform="matrix(1,0,0,1,-129,-73)" stroke-linecap="butt">
      <text x="215.8143" xml:space="preserve" y="269.2482" clip-path="url(#clipPath2)" stroke="none">file</text>
      <rect x="159.952" y="252.0939" clip-path="url(#clipPath2)" fill="none" width="130" rx="4" ry="4" height="26"/>
    </g>
    <g fill="rgb(255,204,0)" text-rendering="geometricPrecision" shape-rendering="geometricPrecision" transform="matrix(1,0,0,1,-129,-73)" stroke="rgb(255,204,0)">
      <rect x="159.952" y="284.5939" clip-path="url(#clipPath2)" width="130" rx="4" ry="4" height="26" stroke="none"/>
    </g>
    <g text-rendering="geometricPrecision" stroke-miterlimit="1.45" shape-rendering="geometricPrecision" font-family="sans-serif" transform="matrix(1,0,0,1,-129,-73)" stroke-linecap="butt">
      <text x="215.8143" xml:space="preserve" y="301.7482" clip-path="url(#clipPath2)" stroke="none">file</text>
      <rect x="159.952" y="284.5939" clip-path="url(#clipPath2)" fill="none" width="130" rx="4" ry="4" height="26"/>
    </g>
    <g fill="rgb(255,204,0)" text-rendering="geometricPrecision" shape-rendering="geometricPrecision" transform="matrix(1,0,0,1,-129,-73)" stroke="rgb(255,204,0)">
      <rect x="159.952" y="317.0939" clip-path="url(#clipPath2)" width="130" rx="4" ry="4" height="26" stroke="none"/>
    </g>
    <g text-rendering="geometricPrecision" stroke-miterlimit="1.45" shape-rendering="geometricPrecision" font-family="sans-serif" transform="matrix(1,0,0,1,-129,-73)" stroke-linecap="butt">
      <text x="215.8143" xml:space="preserve" y="334.2482" clip-path="url(#clipPath2)" stroke="none">file</text>
      <rect x="159.952" y="317.0939" clip-path="url(#clipPath2)" fill="none" width="130" rx="4" ry="4" height="26"/>
    </g>
    <g fill="rgb(255,204,0)" text-rendering="geometricPrecision" shape-rendering="geometricPrecision" transform="matrix(1,0,0,1,-129,-73)" stroke="rgb(255,204,0)">
      <rect x="159.952" y="390.6878" clip-path="url(#clipPath2)" width="130" rx="4" ry="4" height="26" stroke="none"/>
    </g>
    <g text-rendering="geometricPrecision" stroke-miterlimit="1.45" shape-rendering="geometricPrecision" font-family="sans-serif" transform="matrix(1,0,0,1,-129,-73)" stroke-linecap="butt">
      <text x="215.8143" xml:space="preserve" y="407.8421" clip-path="url(#clipPath2)" stroke="none">file</text>
      <rect x="159.952" y="390.6878" clip-path="url(#clipPath2)" fill="none" width="130" rx="4" ry="4" height="26"/>
    </g>
    <g fill="rgb(255,204,0)" text-rendering="geometricPrecision" shape-rendering="geometricPrecision" transform="matrix(1,0,0,1,-129,-73)" stroke="rgb(255,204,0)">
      <rect x="159.952" y="423.1878" clip-path="url(#clipPath2)" width="130" rx="4" ry="4" height="26" stroke="none"/>
    </g>
    <g text-rendering="geometricPrecision" stroke-miterlimit="1.45" shape-rendering="geometricPrecision" font-family="sans-serif" transform="matrix(1,0,0,1,-129,-73)" stroke-linecap="butt">
      <text x="215.8143" xml:space="preserve" y="440.3421" clip-path="url(#clipPath2)" stroke="none">file</text>
      <rect x="159.952" y="423.1878" clip-path="url(#clipPath2)" fill="none" width="130" rx="4" ry="4" height="26"/>
    </g>
    <g fill="rgb(255,204,0)" text-rendering="geometricPrecision" shape-rendering="geometricPrecision" transform="matrix(1,0,0,1,-129,-73)" stroke="rgb(255,204,0)">
      <rect x="159.952" y="455.6878" clip-path="url(#clipPath2)" width="130" rx="4" ry="4" height="26" stroke="none"/>
    </g>
    <g text-rendering="geometricPrecision" stroke-miterlimit="1.45" shape-rendering="geometricPrecision" font-family="sans-serif" transform="matrix(1,0,0,1,-129,-73)" stroke-linecap="butt">
      <text x="215.8143" xml:space="preserve" y="472.8421" clip-path="url(#clipPath2)" stroke="none">file</text>
      <rect x="159.952" y="455.6878" clip-path="url(#clipPath2)" fill="none" width="130" rx="4" ry="4" height="26"/>
    </g>
    <g fill="silver" text-rendering="geometricPrecision" shape-rendering="geometricPrecision" transform="matrix(1,0,0,1,-129,-73)" stroke="silver">
      <rect x="700.924" width="160" height="63.667" y="253.427" clip-path="url(#clipPath2)" stroke="none"/>
      <rect x="704.924" width="37.5391" height="17.9688" y="257.427" clip-path="url(#clipPath2)" stroke="none"/>
    </g>
    <g text-rendering="geometricPrecision" stroke-miterlimit="1.45" shape-rendering="geometricPrecision" font-family="sans-serif" transform="matrix(1,0,0,1,-129,-73)" stroke-linecap="butt">
      <text x="706.924" xml:space="preserve" y="270.5656" clip-path="url(#clipPath2)" stroke="none">linker</text>
      <rect fill="none" x="700.924" width="160" height="63.667" y="253.427" clip-path="url(#clipPath2)"/>
    </g>
    <g fill="rgb(255,153,0)" text-rendering="geometricPrecision" shape-rendering="geometricPrecision" transform="matrix(1,0,0,1,-129,-73)" stroke="rgb(255,153,0)">
      <rect x="714.524" y="278.467" clip-path="url(#clipPath2)" width="130" rx="4" ry="4" height="26" stroke="none"/>
    </g>
    <g text-rendering="geometricPrecision" stroke-miterlimit="1.45" shape-rendering="geometricPrecision" font-family="sans-serif" transform="matrix(1,0,0,1,-129,-73)" stroke-linecap="butt">
      <text x="761.0816" xml:space="preserve" y="295.6212" clip-path="url(#clipPath2)" stroke="none">bin/lib</text>
      <rect x="714.524" y="278.467" clip-path="url(#clipPath2)" fill="none" width="130" rx="4" ry="4" height="26"/>
    </g>
    <g fill="silver" text-rendering="geometricPrecision" shape-rendering="geometricPrecision" transform="matrix(1,0,0,1,-129,-73)" stroke="silver">
      <rect x="330.276" width="160" height="408.667" y="88.9104" clip-path="url(#clipPath2)" stroke="none"/>
      <rect x="334.276" width="35.9336" height="17.9688" y="92.9104" clip-path="url(#clipPath2)" stroke="none"/>
    </g>
    <g text-rendering="geometricPrecision" stroke-miterlimit="1.45" shape-rendering="geometricPrecision" font-family="sans-serif" transform="matrix(1,0,0,1,-129,-73)" stroke-linecap="butt">
      <text x="336.276" xml:space="preserve" y="106.0491" clip-path="url(#clipPath2)" stroke="none">LLVM</text>
      <rect fill="none" x="330.276" width="160" height="408.667" y="88.9104" clip-path="url(#clipPath2)"/>
    </g>
    <g fill="rgb(153,204,0)" text-rendering="geometricPrecision" shape-rendering="geometricPrecision" transform="matrix(1,0,0,1,-129,-73)" stroke="rgb(153,204,0)">
      <rect x="345.276" y="113.5" clip-path="url(#clipPath2)" width="130" rx="4" ry="4" height="26" stroke="none"/>
    </g>
    <g text-rendering="geometricPrecision" stroke-miterlimit="1.45" shape-rendering="geometricPrecision" font-family="sans-serif" transform="matrix(1,0,0,1,-129,-73)" stroke-linecap="butt">
      <text x="370.5846" xml:space="preserve" y="130.6543" clip-path="url(#clipPath2)" stroke="none">LLVM Module</text>
      <rect x="345.276" y="113.5" clip-path="url(#clipPath2)" fill="none" width="130" rx="4" ry="4" height="26"/>
    </g>
    <g fill="rgb(153,204,0)" text-rendering="geometricPrecision" shape-rendering="geometricPrecision" transform="matrix(1,0,0,1,-129,-73)" stroke="rgb(153,204,0)">
      <rect x="345.276" y="146" clip-path="url(#clipPath2)" width="130" rx="4" ry="4" height="26" stroke="none"/>
    </g>
    <g text-rendering="geometricPrecision" stroke-miterlimit="1.45" shape-rendering="geometricPrecision" font-family="sans-serif" transform="matrix(1,0,0,1,-129,-73)" stroke-linecap="butt">
      <text x="370.5846" xml:space="preserve" y="163.1543" clip-path="url(#clipPath2)" stroke="none">LLVM Module</text>
      <rect x="345.276" y="146" clip-path="url(#clipPath2)" fill="none" width="130" rx="4" ry="4" height="26"/>
    </g>
    <g fill="rgb(153,204,0)" text-rendering="geometricPrecision" shape-rendering="geometricPrecision" transform="matrix(1,0,0,1,-129,-73)" stroke="rgb(153,204,0)">
      <rect x="345.276" y="178.5" clip-path="url(#clipPath2)" width="130" rx="4" ry="4" height="26" stroke="none"/>
    </g>
    <g text-rendering="geometricPrecision" stroke-miterlimit="1.45" shape-rendering="geometricPrecision" font-family="sans-serif" transform="matrix(1,0,0,1,-129,-73)" stroke-linecap="butt">
      <text x="370.5846" xml:space="preserve" y="195.6543" clip-path="url(#clipPath2)" stroke="none">LLVM Module</text>
      <rect x="345.276" y="178.5" clip-path="url(#clipPath2)" fill="none" width="130" rx="4" ry="4" height="26"/>
    </g>
    <g fill="rgb(153,204,0)" text-rendering="geometricPrecision" shape-rendering="geometricPrecision" transform="matrix(1,0,0,1,-129,-73)" stroke="rgb(153,204,0)">
      <rect x="345.276" y="252.0939" clip-path="url(#clipPath2)" width="130" rx="4" ry="4" height="26" stroke="none"/>
    </g>
    <g text-rendering="geometricPrecision" stroke-miterlimit="1.45" shape-rendering="geometricPrecision" font-family="sans-serif" transform="matrix(1,0,0,1,-129,-73)" stroke-linecap="butt">
      <text x="370.5846" xml:space="preserve" y="269.2482" clip-path="url(#clipPath2)" stroke="none">LLVM Module</text>
      <rect x="345.276" y="252.0939" clip-path="url(#clipPath2)" fill="none" width="130" rx="4" ry="4" height="26"/>
    </g>
    <g fill="rgb(153,204,0)" text-rendering="geometricPrecision" shape-rendering="geometricPrecision" transform="matrix(1,0,0,1,-129,-73)" stroke="rgb(153,204,0)">
      <rect x="345.276" y="284.5939" clip-path="url(#clipPath2)" width="130" rx="4" ry="4" height="26" stroke="none"/>
    </g>
    <g text-rendering="geometricPrecision" stroke-miterlimit="1.45" shape-rendering="geometricPrecision" font-family="sans-serif" transform="matrix(1,0,0,1,-129,-73)" stroke-linecap="butt">
      <text x="370.5846" xml:space="preserve" y="301.7482" clip-path="url(#clipPath2)" stroke="none">LLVM Module</text>
      <rect x="345.276" y="284.5939" clip-path="url(#clipPath2)" fill="none" width="130" rx="4" ry="4" height="26"/>
    </g>
    <g fill="rgb(153,204,0)" text-rendering="geometricPrecision" shape-rendering="geometricPrecision" transform="matrix(1,0,0,1,-129,-73)" stroke="rgb(153,204,0)">
      <rect x="345.276" y="317.0939" clip-path="url(#clipPath2)" width="130" rx="4" ry="4" height="26" stroke="none"/>
    </g>
    <g text-rendering="geometricPrecision" stroke-miterlimit="1.45" shape-rendering="geometricPrecision" font-family="sans-serif" transform="matrix(1,0,0,1,-129,-73)" stroke-linecap="butt">
      <text x="370.5846" xml:space="preserve" y="334.2482" clip-path="url(#clipPath2)" stroke="none">LLVM Module</text>
      <rect x="345.276" y="317.0939" clip-path="url(#clipPath2)" fill="none" width="130" rx="4" ry="4" height="26"/>
    </g>
    <g fill="rgb(153,204,0)" text-rendering="geometricPrecision" shape-rendering="geometricPrecision" transform="matrix(1,0,0,1,-129,-73)" stroke="rgb(153,204,0)">
      <rect x="345.276" y="390.6878" clip-path="url(#clipPath2)" width="130" rx="4" ry="4" height="26" stroke="none"/>
    </g>
    <g text-rendering="geometricPrecision" stroke-miterlimit="1.45" shape-rendering="geometricPrecision" font-family="sans-serif" transform="matrix(1,0,0,1,-129,-73)" stroke-linecap="butt">
      <text x="370.5846" xml:space="preserve" y="407.8421" clip-path="url(#clipPath2)" stroke="none">LLVM Module</text>
      <rect x="345.276" y="390.6878" clip-path="url(#clipPath2)" fill="none" width="130" rx="4" ry="4" height="26"/>
    </g>
    <g fill="rgb(153,204,0)" text-rendering="geometricPrecision" shape-rendering="geometricPrecision" transform="matrix(1,0,0,1,-129,-73)" stroke="rgb(153,204,0)">
      <rect x="345.276" y="423.1878" clip-path="url(#clipPath2)" width="130" rx="4" ry="4" height="26" stroke="none"/>
    </g>
    <g text-rendering="geometricPrecision" stroke-miterlimit="1.45" shape-rendering="geometricPrecision" font-family="sans-serif" transform="matrix(1,0,0,1,-129,-73)" stroke-linecap="butt">
      <text x="370.5846" xml:space="preserve" y="440.3421" clip-path="url(#clipPath2)" stroke="none">LLVM Module</text>
      <rect x="345.276" y="423.1878" clip-path="url(#clipPath2)" fill="none" width="130" rx="4" ry="4" height="26"/>
    </g>
    <g fill="rgb(153,204,0)" text-rendering="geometricPrecision" shape-rendering="geometricPrecision" transform="matrix(1,0,0,1,-129,-73)" stroke="rgb(153,204,0)">
      <rect x="345.276" y="455.6878" clip-path="url(#clipPath2)" width="130" rx="4" ry="4" height="26" stroke="none"/>
    </g>
    <g text-rendering="geometricPrecision" stroke-miterlimit="1.45" shape-rendering="geometricPrecision" font-family="sans-serif" transform="matrix(1,0,0,1,-129,-73)" stroke-linecap="butt">
      <text x="370.5846" xml:space="preserve" y="472.8421" clip-path="url(#clipPath2)" stroke="none">LLVM Module</text>
      <rect x="345.276" y="455.6878" clip-path="url(#clipPath2)" fill="none" width="130" rx="4" ry="4" height="26"/>
    </g>
    <g fill="silver" text-rendering="geometricPrecision" shape-rendering="geometricPrecision" transform="matrix(1,0,0,1,-129,-73)" stroke="silver">
      <rect x="515.6" width="160" height="408.667" y="88.9104" clip-path="url(#clipPath2)" stroke="none"/>
      <rect x="519.6" width="91.3867" height="17.9688" y="92.9104" clip-path="url(#clipPath2)" stroke="none"/>
    </g>
    <g text-rendering="geometricPrecision" stroke-miterlimit="1.45" shape-rendering="geometricPrecision" font-family="sans-serif" transform="matrix(1,0,0,1,-129,-73)" stroke-linecap="butt">
      <text x="521.6" xml:space="preserve" y="106.0491" clip-path="url(#clipPath2)" stroke="none">LLVM-backend</text>
      <rect fill="none" x="515.6" width="160" height="408.667" y="88.9104" clip-path="url(#clipPath2)"/>
    </g>
    <g fill="rgb(51,204,204)" text-rendering="geometricPrecision" shape-rendering="geometricPrecision" transform="matrix(1,0,0,1,-129,-73)" stroke="rgb(51,204,204)">
      <rect x="530.6" y="113.5" clip-path="url(#clipPath2)" width="130" rx="4" ry="4" height="26" stroke="none"/>
    </g>
    <g text-rendering="geometricPrecision" stroke-miterlimit="1.45" shape-rendering="geometricPrecision" font-family="sans-serif" transform="matrix(1,0,0,1,-129,-73)" stroke-linecap="butt">
      <text x="567.5365" xml:space="preserve" y="130.6543" clip-path="url(#clipPath2)" stroke="none">module.o</text>
      <rect x="530.6" y="113.5" clip-path="url(#clipPath2)" fill="none" width="130" rx="4" ry="4" height="26"/>
    </g>
    <g fill="rgb(51,204,204)" text-rendering="geometricPrecision" shape-rendering="geometricPrecision" transform="matrix(1,0,0,1,-129,-73)" stroke="rgb(51,204,204)">
      <rect x="530.6" y="146" clip-path="url(#clipPath2)" width="130" rx="4" ry="4" height="26" stroke="none"/>
    </g>
    <g text-rendering="geometricPrecision" stroke-miterlimit="1.45" shape-rendering="geometricPrecision" font-family="sans-serif" transform="matrix(1,0,0,1,-129,-73)" stroke-linecap="butt">
      <text x="567.5365" xml:space="preserve" y="163.1543" clip-path="url(#clipPath2)" stroke="none">module.o</text>
      <rect x="530.6" y="146" clip-path="url(#clipPath2)" fill="none" width="130" rx="4" ry="4" height="26"/>
    </g>
    <g fill="rgb(51,204,204)" text-rendering="geometricPrecision" shape-rendering="geometricPrecision" transform="matrix(1,0,0,1,-129,-73)" stroke="rgb(51,204,204)">
      <rect x="530.6" y="178.5" clip-path="url(#clipPath2)" width="130" rx="4" ry="4" height="26" stroke="none"/>
    </g>
    <g text-rendering="geometricPrecision" stroke-miterlimit="1.45" shape-rendering="geometricPrecision" font-family="sans-serif" transform="matrix(1,0,0,1,-129,-73)" stroke-linecap="butt">
      <text x="567.5365" xml:space="preserve" y="195.6543" clip-path="url(#clipPath2)" stroke="none">module.o</text>
      <rect x="530.6" y="178.5" clip-path="url(#clipPath2)" fill="none" width="130" rx="4" ry="4" height="26"/>
    </g>
    <g fill="rgb(51,204,204)" text-rendering="geometricPrecision" shape-rendering="geometricPrecision" transform="matrix(1,0,0,1,-129,-73)" stroke="rgb(51,204,204)">
      <rect x="530.6" y="252.0939" clip-path="url(#clipPath2)" width="130" rx="4" ry="4" height="26" stroke="none"/>
    </g>
    <g text-rendering="geometricPrecision" stroke-miterlimit="1.45" shape-rendering="geometricPrecision" font-family="sans-serif" transform="matrix(1,0,0,1,-129,-73)" stroke-linecap="butt">
      <text x="567.5365" xml:space="preserve" y="269.2482" clip-path="url(#clipPath2)" stroke="none">module.o</text>
      <rect x="530.6" y="252.0939" clip-path="url(#clipPath2)" fill="none" width="130" rx="4" ry="4" height="26"/>
    </g>
    <g fill="rgb(51,204,204)" text-rendering="geometricPrecision" shape-rendering="geometricPrecision" transform="matrix(1,0,0,1,-129,-73)" stroke="rgb(51,204,204)">
      <rect x="530.6" y="284.5939" clip-path="url(#clipPath2)" width="130" rx="4" ry="4" height="26" stroke="none"/>
    </g>
    <g text-rendering="geometricPrecision" stroke-miterlimit="1.45" shape-rendering="geometricPrecision" font-family="sans-serif" transform="matrix(1,0,0,1,-129,-73)" stroke-linecap="butt">
      <text x="567.5365" xml:space="preserve" y="301.7482" clip-path="url(#clipPath2)" stroke="none">module.o</text>
      <rect x="530.6" y="284.5939" clip-path="url(#clipPath2)" fill="none" width="130" rx="4" ry="4" height="26"/>
    </g>
    <g fill="rgb(51,204,204)" text-rendering="geometricPrecision" shape-rendering="geometricPrecision" transform="matrix(1,0,0,1,-129,-73)" stroke="rgb(51,204,204)">
      <rect x="530.6" y="317.0939" clip-path="url(#clipPath2)" width="130" rx="4" ry="4" height="26" stroke="none"/>
    </g>
    <g text-rendering="geometricPrecision" stroke-miterlimit="1.45" shape-rendering="geometricPrecision" font-family="sans-serif" transform="matrix(1,0,0,1,-129,-73)" stroke-linecap="butt">
      <text x="567.5365" xml:space="preserve" y="334.2482" clip-path="url(#clipPath2)" stroke="none">module.o</text>
      <rect x="530.6" y="317.0939" clip-path="url(#clipPath2)" fill="none" width="130" rx="4" ry="4" height="26"/>
    </g>
    <g fill="rgb(51,204,204)" text-rendering="geometricPrecision" shape-rendering="geometricPrecision" transform="matrix(1,0,0,1,-129,-73)" stroke="rgb(51,204,204)">
      <rect x="530.6" y="390.6878" clip-path="url(#clipPath2)" width="130" rx="4" ry="4" height="26" stroke="none"/>
    </g>
    <g text-rendering="geometricPrecision" stroke-miterlimit="1.45" shape-rendering="geometricPrecision" font-family="sans-serif" transform="matrix(1,0,0,1,-129,-73)" stroke-linecap="butt">
      <text x="567.5365" xml:space="preserve" y="407.8421" clip-path="url(#clipPath2)" stroke="none">module.o</text>
      <rect x="530.6" y="390.6878" clip-path="url(#clipPath2)" fill="none" width="130" rx="4" ry="4" height="26"/>
    </g>
    <g fill="rgb(51,204,204)" text-rendering="geometricPrecision" shape-rendering="geometricPrecision" transform="matrix(1,0,0,1,-129,-73)" stroke="rgb(51,204,204)">
      <rect x="530.6" y="423.1878" clip-path="url(#clipPath2)" width="130" rx="4" ry="4" height="26" stroke="none"/>
    </g>
    <g text-rendering="geometricPrecision" stroke-miterlimit="1.45" shape-rendering="geometricPrecision" font-family="sans-serif" transform="matrix(1,0,0,1,-129,-73)" stroke-linecap="butt">
      <text x="567.5365" xml:space="preserve" y="440.3421" clip-path="url(#clipPath2)" stroke="none">module.o</text>
      <rect x="530.6" y="423.1878" clip-path="url(#clipPath2)" fill="none" width="130" rx="4" ry="4" height="26"/>
    </g>
    <g fill="rgb(51,204,204)" text-rendering="geometricPrecision" shape-rendering="geometricPrecision" transform="matrix(1,0,0,1,-129,-73)" stroke="rgb(51,204,204)">
      <rect x="530.6" y="455.6878" clip-path="url(#clipPath2)" width="130" rx="4" ry="4" height="26" stroke="none"/>
    </g>
    <g text-rendering="geometricPrecision" stroke-miterlimit="1.45" shape-rendering="geometricPrecision" font-family="sans-serif" transform="matrix(1,0,0,1,-129,-73)" stroke-linecap="butt">
      <text x="567.5365" xml:space="preserve" y="472.8421" clip-path="url(#clipPath2)" stroke="none">module.o</text>
      <rect x="530.6" y="455.6878" clip-path="url(#clipPath2)" fill="none" width="130" rx="4" ry="4" height="26"/>
      <path fill="none" d="M289.9692 126.5 L337.2763 126.5" clip-path="url(#clipPath2)"/>
      <path d="M345.2763 126.5 L333.2763 121.5 L336.2763 126.5 L333.2763 131.5 Z" clip-path="url(#clipPath2)" stroke="none"/>
      <path fill="none" d="M289.9692 159 L337.2763 159" clip-path="url(#clipPath2)"/>
      <path d="M345.2763 159 L333.2763 154 L336.2763 159 L333.2763 164 Z" clip-path="url(#clipPath2)" stroke="none"/>
      <path fill="none" d="M289.9692 191.5 L337.2763 191.5" clip-path="url(#clipPath2)"/>
      <path d="M345.2763 191.5 L333.2763 186.5 L336.2763 191.5 L333.2763 196.5 Z" clip-path="url(#clipPath2)" stroke="none"/>
      <path fill="none" d="M289.9692 265.0939 L337.2763 265.0939" clip-path="url(#clipPath2)"/>
      <path d="M345.2763 265.0939 L333.2763 260.0939 L336.2763 265.0939 L333.2763 270.0939 Z" clip-path="url(#clipPath2)" stroke="none"/>
      <path fill="none" d="M289.9692 297.5939 L337.2763 297.5939" clip-path="url(#clipPath2)"/>
      <path d="M345.2763 297.5939 L333.2763 292.5939 L336.2763 297.5939 L333.2763 302.5939 Z" clip-path="url(#clipPath2)" stroke="none"/>
      <path fill="none" d="M289.9692 330.0939 L337.2763 330.0939" clip-path="url(#clipPath2)"/>
      <path d="M345.2763 330.0939 L333.2763 325.0939 L336.2763 330.0939 L333.2763 335.0939 Z" clip-path="url(#clipPath2)" stroke="none"/>
      <path fill="none" d="M289.9692 403.6878 L337.2763 403.6878" clip-path="url(#clipPath2)"/>
      <path d="M345.2763 403.6878 L333.2763 398.6878 L336.2763 403.6878 L333.2763 408.6878 Z" clip-path="url(#clipPath2)" stroke="none"/>
      <path fill="none" d="M289.9692 436.1878 L337.2763 436.1878" clip-path="url(#clipPath2)"/>
      <path d="M345.2763 436.1878 L333.2763 431.1878 L336.2763 436.1878 L333.2763 441.1878 Z" clip-path="url(#clipPath2)" stroke="none"/>
      <path fill="none" d="M289.9692 468.6878 L337.2763 468.6878" clip-path="url(#clipPath2)"/>
      <path d="M345.2763 468.6878 L333.2763 463.6878 L336.2763 468.6878 L333.2763 473.6878 Z" clip-path="url(#clipPath2)" stroke="none"/>
      <path fill="none" d="M675.6 292.471 L706.5465 292.172" clip-path="url(#clipPath2)"/>
      <path d="M714.5461 292.0947 L702.4984 287.2109 L705.5466 292.1817 L702.595 297.2104 Z" clip-path="url(#clipPath2)" stroke="none"/>
      <path fill="none" d="M475.2932 126.5 L522.6003 126.5" clip-path="url(#clipPath2)"/>
      <path d="M530.6003 126.5 L518.6003 121.5 L521.6003 126.5 L518.6003 131.5 Z" clip-path="url(#clipPath2)" stroke="none"/>
      <path fill="none" d="M475.2932 159 L522.6003 159" clip-path="url(#clipPath2)"/>
      <path d="M530.6003 159 L518.6003 154 L521.6003 159 L518.6003 164 Z" clip-path="url(#clipPath2)" stroke="none"/>
      <path fill="none" d="M475.2932 191.5 L522.6003 191.5" clip-path="url(#clipPath2)"/>
      <path d="M530.6003 191.5 L518.6003 186.5 L521.6003 191.5 L518.6003 196.5 Z" clip-path="url(#clipPath2)" stroke="none"/>
      <path fill="none" d="M475.2932 265.0939 L522.6003 265.0939" clip-path="url(#clipPath2)"/>
      <path d="M530.6003 265.0939 L518.6003 260.0939 L521.6003 265.0939 L518.6003 270.0939 Z" clip-path="url(#clipPath2)" stroke="none"/>
      <path fill="none" d="M475.2932 297.5939 L522.6003 297.5939" clip-path="url(#clipPath2)"/>
      <path d="M530.6003 297.5939 L518.6003 292.5939 L521.6003 297.5939 L518.6003 302.5939 Z" clip-path="url(#clipPath2)" stroke="none"/>
      <path fill="none" d="M475.2932 330.0939 L522.6003 330.0939" clip-path="url(#clipPath2)"/>
      <path d="M530.6003 330.0939 L518.6003 325.0939 L521.6003 330.0939 L518.6003 335.0939 Z" clip-path="url(#clipPath2)" stroke="none"/>
      <path fill="none" d="M475.2932 403.6878 L522.6003 403.6878" clip-path="url(#clipPath2)"/>
      <path d="M530.6003 403.6878 L518.6003 398.6878 L521.6003 403.6878 L518.6003 408.6878 Z" clip-path="url(#clipPath2)" stroke="none"/>
      <path fill="none" d="M475.2932 436.1878 L522.6003 436.1878" clip-path="url(#clipPath2)"/>
      <path d="M530.6003 436.1878 L518.6003 431.1878 L521.6003 436.1878 L518.6003 441.1878 Z" clip-path="url(#clipPath2)" stroke="none"/>
      <path fill="none" d="M475.2932 468.6878 L522.6003 468.6878" clip-path="url(#clipPath2)"/>
      <path d="M530.6003 468.6878 L518.6003 463.6878 L521.6003 468.6878 L518.6003 473.6878 Z" clip-path="url(#clipPath2)" stroke="none"/>
    </g>
  </g>
</svg>
