<?xml version="1.0" encoding="UTF-8"?><svg xmlns="http://www.w3.org/2000/svg" xmlns:xlink="http://www.w3.org/1999/xlink" fill-opacity="1" color-rendering="auto" color-interpolation="auto" text-rendering="auto" stroke="black" stroke-linecap="square" width="456" stroke-miterlimit="10" shape-rendering="auto" stroke-opacity="1" fill="black" stroke-dasharray="none" font-weight="normal" stroke-width="1" height="618" font-family="'Dialog'" font-style="normal" stroke-linejoin="miter" font-size="12px" stroke-dashoffset="0" image-rendering="auto">
  <!--Generated by ySVG 2.5-->
  <defs id="genericDefs"/>
  <g>
    <defs id="defs1">
      <clipPath clipPathUnits="userSpaceOnUse" id="clipPath1">
        <path d="M0 0 L456 0 L456 618 L0 618 L0 0 Z"/>
      </clipPath>
      <clipPath clipPathUnits="userSpaceOnUse" id="clipPath2">
        <path d="M122 73 L578 73 L578 691 L122 691 L122 73 Z"/>
      </clipPath>
    </defs>
    <g fill="white" text-rendering="geometricPrecision" shape-rendering="geometricPrecision" transform="translate(-122,-73)" stroke="white">
      <rect x="122" width="456" height="618" y="73" clip-path="url(#clipPath2)" stroke="none"/>
    </g>
    <g fill="silver" text-rendering="geometricPrecision" shape-rendering="geometricPrecision" transform="matrix(1,0,0,1,-122,-73)" stroke="silver">
      <rect x="137.8" width="176" height="124.2" y="88.8" clip-path="url(#clipPath2)" stroke="none"/>
      <rect x="141.8" width="33.2031" height="17.9688" y="92.8" clip-path="url(#clipPath2)" stroke="none"/>
    </g>
    <g text-rendering="geometricPrecision" stroke-miterlimit="1.45" shape-rendering="geometricPrecision" font-family="sans-serif" transform="matrix(1,0,0,1,-122,-73)" stroke-linecap="butt">
      <text x="143.8" xml:space="preserve" y="105.9387" clip-path="url(#clipPath2)" stroke="none">c-file</text>
      <rect fill="none" x="137.8" width="176" height="124.2" y="88.8" clip-path="url(#clipPath2)"/>
    </g>
    <g fill="rgb(51,204,204)" text-rendering="geometricPrecision" shape-rendering="geometricPrecision" transform="matrix(1,0,0,1,-122,-73)" stroke="rgb(51,204,204)">
      <rect x="160.8" y="146.4" clip-path="url(#clipPath2)" width="130" rx="4" ry="4" height="26" stroke="none"/>
    </g>
    <g text-rendering="geometricPrecision" stroke-miterlimit="1.45" shape-rendering="geometricPrecision" font-family="sans-serif" transform="matrix(1,0,0,1,-122,-73)" stroke-linecap="butt">
      <text x="191.5637" xml:space="preserve" y="163.5543" clip-path="url(#clipPath2)" stroke="none">analyse file</text>
      <rect x="160.8" y="146.4" clip-path="url(#clipPath2)" fill="none" width="130" rx="4" ry="4" height="26"/>
    </g>
    <g fill="rgb(153,204,0)" text-rendering="geometricPrecision" shape-rendering="geometricPrecision" transform="matrix(1,0,0,1,-122,-73)" stroke="rgb(153,204,0)">
      <rect x="160.8" y="113.5" clip-path="url(#clipPath2)" width="130" rx="4" ry="4" height="26" stroke="none"/>
    </g>
    <g text-rendering="geometricPrecision" stroke-miterlimit="1.45" shape-rendering="geometricPrecision" font-family="sans-serif" transform="matrix(1,0,0,1,-122,-73)" stroke-linecap="butt">
      <text x="197.9855" xml:space="preserve" y="130.6543" clip-path="url(#clipPath2)" stroke="none">parse file</text>
      <rect x="160.8" y="113.5" clip-path="url(#clipPath2)" fill="none" width="130" rx="4" ry="4" height="26"/>
    </g>
    <g fill="silver" text-rendering="geometricPrecision" shape-rendering="geometricPrecision" transform="matrix(1,0,0,1,-122,-73)" stroke="silver">
      <rect x="137.8" width="176" height="69" y="606.8" clip-path="url(#clipPath2)" stroke="none"/>
      <rect x="141.8" width="40.6973" height="17.9688" y="610.8" clip-path="url(#clipPath2)" stroke="none"/>
    </g>
    <g text-rendering="geometricPrecision" stroke-miterlimit="1.45" shape-rendering="geometricPrecision" font-family="sans-serif" transform="matrix(1,0,0,1,-122,-73)" stroke-linecap="butt">
      <text x="143.8" xml:space="preserve" y="623.9387" clip-path="url(#clipPath2)" stroke="none">target</text>
      <rect fill="none" x="137.8" width="176" height="69" y="606.8" clip-path="url(#clipPath2)"/>
    </g>
    <g fill="rgb(255,153,0)" text-rendering="geometricPrecision" shape-rendering="geometricPrecision" transform="matrix(1,0,0,1,-122,-73)" stroke="rgb(255,153,0)">
      <rect x="160.8" y="632" clip-path="url(#clipPath2)" width="130" rx="4" ry="4" height="32" stroke="none"/>
    </g>
    <g text-rendering="geometricPrecision" stroke-miterlimit="1.45" shape-rendering="geometricPrecision" font-family="sans-serif" transform="matrix(1,0,0,1,-122,-73)" stroke-linecap="butt">
      <text x="193.7902" xml:space="preserve" y="652.1543" clip-path="url(#clipPath2)" stroke="none">link file.o's</text>
      <rect x="160.8" y="632" clip-path="url(#clipPath2)" fill="none" width="130" rx="4" ry="4" height="32"/>
    </g>
    <g fill="silver" text-rendering="geometricPrecision" shape-rendering="geometricPrecision" transform="matrix(1,0,0,1,-122,-73)" stroke="silver">
      <rect x="387" width="176" height="423" y="88.8" clip-path="url(#clipPath2)" stroke="none"/>
      <rect x="391" width="40.6973" height="17.9688" y="92.8" clip-path="url(#clipPath2)" stroke="none"/>
    </g>
    <g text-rendering="geometricPrecision" stroke-miterlimit="1.45" shape-rendering="geometricPrecision" font-family="sans-serif" transform="matrix(1,0,0,1,-122,-73)" stroke-linecap="butt">
      <text x="393" xml:space="preserve" y="105.9387" clip-path="url(#clipPath2)" stroke="none">target</text>
      <rect fill="none" x="387" width="176" height="423" y="88.8" clip-path="url(#clipPath2)"/>
    </g>
    <g fill="rgb(255,204,0)" text-rendering="geometricPrecision" shape-rendering="geometricPrecision" transform="matrix(1,0,0,1,-122,-73)" stroke="rgb(255,204,0)">
      <rect x="410" y="411" clip-path="url(#clipPath2)" width="130" rx="4" ry="4" height="40" stroke="none"/>
    </g>
    <g text-rendering="geometricPrecision" stroke-miterlimit="1.45" shape-rendering="geometricPrecision" font-family="sans-serif" transform="matrix(1,0,0,1,-122,-73)" stroke-linecap="butt">
      <text x="431.4414" xml:space="preserve" y="428.1699" clip-path="url(#clipPath2)" stroke="none">generate code</text>
      <text x="431.4414" xml:space="preserve" y="442.1387" clip-path="url(#clipPath2)" stroke="none">per module</text>
      <rect x="410" y="411" clip-path="url(#clipPath2)" fill="none" width="130" rx="4" ry="4" height="40"/>
    </g>
    <g fill="rgb(255,204,0)" text-rendering="geometricPrecision" shape-rendering="geometricPrecision" transform="matrix(1,0,0,1,-122,-73)" stroke="rgb(255,204,0)">
      <rect x="160.8" y="179.3" clip-path="url(#clipPath2)" width="130" rx="4" ry="4" height="26" stroke="none"/>
    </g>
    <g text-rendering="geometricPrecision" stroke-miterlimit="1.45" shape-rendering="geometricPrecision" font-family="sans-serif" transform="matrix(1,0,0,1,-122,-73)" stroke-linecap="butt">
      <text x="180.0881" xml:space="preserve" y="196.4543" clip-path="url(#clipPath2)" stroke="none">generate .o file</text>
      <rect x="160.8" y="179.3" clip-path="url(#clipPath2)" fill="none" width="130" rx="4" ry="4" height="26"/>
    </g>
    <g fill="silver" text-rendering="geometricPrecision" shape-rendering="geometricPrecision" transform="matrix(1,0,0,1,-122,-73)" stroke="silver">
      <rect x="137.8" width="176" height="124.2" y="218.3" clip-path="url(#clipPath2)" stroke="none"/>
      <rect x="141.8" width="33.2031" height="17.9688" y="222.3" clip-path="url(#clipPath2)" stroke="none"/>
    </g>
    <g text-rendering="geometricPrecision" stroke-miterlimit="1.45" shape-rendering="geometricPrecision" font-family="sans-serif" transform="matrix(1,0,0,1,-122,-73)" stroke-linecap="butt">
      <text x="143.8" xml:space="preserve" y="235.4387" clip-path="url(#clipPath2)" stroke="none">c-file</text>
      <rect fill="none" x="137.8" width="176" height="124.2" y="218.3" clip-path="url(#clipPath2)"/>
    </g>
    <g fill="rgb(51,204,204)" text-rendering="geometricPrecision" shape-rendering="geometricPrecision" transform="matrix(1,0,0,1,-122,-73)" stroke="rgb(51,204,204)">
      <rect x="160.8" y="275.9" clip-path="url(#clipPath2)" width="130" rx="4" ry="4" height="26" stroke="none"/>
    </g>
    <g text-rendering="geometricPrecision" stroke-miterlimit="1.45" shape-rendering="geometricPrecision" font-family="sans-serif" transform="matrix(1,0,0,1,-122,-73)" stroke-linecap="butt">
      <text x="191.5637" xml:space="preserve" y="293.0543" clip-path="url(#clipPath2)" stroke="none">analyse file</text>
      <rect x="160.8" y="275.9" clip-path="url(#clipPath2)" fill="none" width="130" rx="4" ry="4" height="26"/>
    </g>
    <g fill="rgb(153,204,0)" text-rendering="geometricPrecision" shape-rendering="geometricPrecision" transform="matrix(1,0,0,1,-122,-73)" stroke="rgb(153,204,0)">
      <rect x="160.8" y="243" clip-path="url(#clipPath2)" width="130" rx="4" ry="4" height="26" stroke="none"/>
    </g>
    <g text-rendering="geometricPrecision" stroke-miterlimit="1.45" shape-rendering="geometricPrecision" font-family="sans-serif" transform="matrix(1,0,0,1,-122,-73)" stroke-linecap="butt">
      <text x="197.9855" xml:space="preserve" y="260.1543" clip-path="url(#clipPath2)" stroke="none">parse file</text>
      <rect x="160.8" y="243" clip-path="url(#clipPath2)" fill="none" width="130" rx="4" ry="4" height="26"/>
    </g>
    <g fill="rgb(255,204,0)" text-rendering="geometricPrecision" shape-rendering="geometricPrecision" transform="matrix(1,0,0,1,-122,-73)" stroke="rgb(255,204,0)">
      <rect x="160.8" y="308.8" clip-path="url(#clipPath2)" width="130" rx="4" ry="4" height="26" stroke="none"/>
    </g>
    <g text-rendering="geometricPrecision" stroke-miterlimit="1.45" shape-rendering="geometricPrecision" font-family="sans-serif" transform="matrix(1,0,0,1,-122,-73)" stroke-linecap="butt">
      <text x="180.0881" xml:space="preserve" y="325.9543" clip-path="url(#clipPath2)" stroke="none">generate .o file</text>
      <rect x="160.8" y="308.8" clip-path="url(#clipPath2)" fill="none" width="130" rx="4" ry="4" height="26"/>
    </g>
    <g fill="silver" text-rendering="geometricPrecision" shape-rendering="geometricPrecision" transform="matrix(1,0,0,1,-122,-73)" stroke="silver">
      <rect x="137.8" width="176" height="124.2" y="347.8" clip-path="url(#clipPath2)" stroke="none"/>
      <rect x="141.8" width="33.2031" height="17.9688" y="351.8" clip-path="url(#clipPath2)" stroke="none"/>
    </g>
    <g text-rendering="geometricPrecision" stroke-miterlimit="1.45" shape-rendering="geometricPrecision" font-family="sans-serif" transform="matrix(1,0,0,1,-122,-73)" stroke-linecap="butt">
      <text x="143.8" xml:space="preserve" y="364.9387" clip-path="url(#clipPath2)" stroke="none">c-file</text>
      <rect fill="none" x="137.8" width="176" height="124.2" y="347.8" clip-path="url(#clipPath2)"/>
    </g>
    <g fill="rgb(51,204,204)" text-rendering="geometricPrecision" shape-rendering="geometricPrecision" transform="matrix(1,0,0,1,-122,-73)" stroke="rgb(51,204,204)">
      <rect x="160.8" y="405.4" clip-path="url(#clipPath2)" width="130" rx="4" ry="4" height="26" stroke="none"/>
    </g>
    <g text-rendering="geometricPrecision" stroke-miterlimit="1.45" shape-rendering="geometricPrecision" font-family="sans-serif" transform="matrix(1,0,0,1,-122,-73)" stroke-linecap="butt">
      <text x="191.5637" xml:space="preserve" y="422.5543" clip-path="url(#clipPath2)" stroke="none">analyse file</text>
      <rect x="160.8" y="405.4" clip-path="url(#clipPath2)" fill="none" width="130" rx="4" ry="4" height="26"/>
    </g>
    <g fill="rgb(153,204,0)" text-rendering="geometricPrecision" shape-rendering="geometricPrecision" transform="matrix(1,0,0,1,-122,-73)" stroke="rgb(153,204,0)">
      <rect x="160.8" y="372.5" clip-path="url(#clipPath2)" width="130" rx="4" ry="4" height="26" stroke="none"/>
    </g>
    <g text-rendering="geometricPrecision" stroke-miterlimit="1.45" shape-rendering="geometricPrecision" font-family="sans-serif" transform="matrix(1,0,0,1,-122,-73)" stroke-linecap="butt">
      <text x="197.9855" xml:space="preserve" y="389.6543" clip-path="url(#clipPath2)" stroke="none">parse file</text>
      <rect x="160.8" y="372.5" clip-path="url(#clipPath2)" fill="none" width="130" rx="4" ry="4" height="26"/>
    </g>
    <g fill="rgb(255,204,0)" text-rendering="geometricPrecision" shape-rendering="geometricPrecision" transform="matrix(1,0,0,1,-122,-73)" stroke="rgb(255,204,0)">
      <rect x="160.8" y="438.3" clip-path="url(#clipPath2)" width="130" rx="4" ry="4" height="26" stroke="none"/>
    </g>
    <g text-rendering="geometricPrecision" stroke-miterlimit="1.45" shape-rendering="geometricPrecision" font-family="sans-serif" transform="matrix(1,0,0,1,-122,-73)" stroke-linecap="butt">
      <text x="180.0881" xml:space="preserve" y="455.4543" clip-path="url(#clipPath2)" stroke="none">generate .o file</text>
      <rect x="160.8" y="438.3" clip-path="url(#clipPath2)" fill="none" width="130" rx="4" ry="4" height="26"/>
    </g>
    <g fill="silver" text-rendering="geometricPrecision" shape-rendering="geometricPrecision" transform="matrix(1,0,0,1,-122,-73)" stroke="silver">
      <rect x="137.8" width="176" height="124.2" y="477.3" clip-path="url(#clipPath2)" stroke="none"/>
      <rect x="141.8" width="33.2031" height="17.9688" y="481.3" clip-path="url(#clipPath2)" stroke="none"/>
    </g>
    <g text-rendering="geometricPrecision" stroke-miterlimit="1.45" shape-rendering="geometricPrecision" font-family="sans-serif" transform="matrix(1,0,0,1,-122,-73)" stroke-linecap="butt">
      <text x="143.8" xml:space="preserve" y="494.4387" clip-path="url(#clipPath2)" stroke="none">c-file</text>
      <rect fill="none" x="137.8" width="176" height="124.2" y="477.3" clip-path="url(#clipPath2)"/>
    </g>
    <g fill="rgb(51,204,204)" text-rendering="geometricPrecision" shape-rendering="geometricPrecision" transform="matrix(1,0,0,1,-122,-73)" stroke="rgb(51,204,204)">
      <rect x="160.8" y="534.9" clip-path="url(#clipPath2)" width="130" rx="4" ry="4" height="26" stroke="none"/>
    </g>
    <g text-rendering="geometricPrecision" stroke-miterlimit="1.45" shape-rendering="geometricPrecision" font-family="sans-serif" transform="matrix(1,0,0,1,-122,-73)" stroke-linecap="butt">
      <text x="191.5637" xml:space="preserve" y="552.0543" clip-path="url(#clipPath2)" stroke="none">analyse file</text>
      <rect x="160.8" y="534.9" clip-path="url(#clipPath2)" fill="none" width="130" rx="4" ry="4" height="26"/>
    </g>
    <g fill="rgb(153,204,0)" text-rendering="geometricPrecision" shape-rendering="geometricPrecision" transform="matrix(1,0,0,1,-122,-73)" stroke="rgb(153,204,0)">
      <rect x="160.8" y="502" clip-path="url(#clipPath2)" width="130" rx="4" ry="4" height="26" stroke="none"/>
    </g>
    <g text-rendering="geometricPrecision" stroke-miterlimit="1.45" shape-rendering="geometricPrecision" font-family="sans-serif" transform="matrix(1,0,0,1,-122,-73)" stroke-linecap="butt">
      <text x="197.9855" xml:space="preserve" y="519.1543" clip-path="url(#clipPath2)" stroke="none">parse file</text>
      <rect x="160.8" y="502" clip-path="url(#clipPath2)" fill="none" width="130" rx="4" ry="4" height="26"/>
    </g>
    <g fill="rgb(255,204,0)" text-rendering="geometricPrecision" shape-rendering="geometricPrecision" transform="matrix(1,0,0,1,-122,-73)" stroke="rgb(255,204,0)">
      <rect x="160.8" y="567.8" clip-path="url(#clipPath2)" width="130" rx="4" ry="4" height="26" stroke="none"/>
    </g>
    <g text-rendering="geometricPrecision" stroke-miterlimit="1.45" shape-rendering="geometricPrecision" font-family="sans-serif" transform="matrix(1,0,0,1,-122,-73)" stroke-linecap="butt">
      <text x="180.0881" xml:space="preserve" y="584.9543" clip-path="url(#clipPath2)" stroke="none">generate .o file</text>
      <rect x="160.8" y="567.8" clip-path="url(#clipPath2)" fill="none" width="130" rx="4" ry="4" height="26"/>
    </g>
    <g fill="rgb(153,204,0)" text-rendering="geometricPrecision" shape-rendering="geometricPrecision" transform="matrix(1,0,0,1,-122,-73)" stroke="rgb(153,204,0)">
      <rect x="408.6" y="113.5" clip-path="url(#clipPath2)" width="130" rx="4" ry="4" height="26" stroke="none"/>
    </g>
    <g text-rendering="geometricPrecision" stroke-miterlimit="1.45" shape-rendering="geometricPrecision" font-family="sans-serif" transform="matrix(1,0,0,1,-122,-73)" stroke-linecap="butt">
      <text x="445.7856" xml:space="preserve" y="130.6543" clip-path="url(#clipPath2)" stroke="none">parse file</text>
      <rect x="408.6" y="113.5" clip-path="url(#clipPath2)" fill="none" width="130" rx="4" ry="4" height="26"/>
    </g>
    <g fill="rgb(153,204,0)" text-rendering="geometricPrecision" shape-rendering="geometricPrecision" transform="matrix(1,0,0,1,-122,-73)" stroke="rgb(153,204,0)">
      <rect x="408.6" y="145" clip-path="url(#clipPath2)" width="130" rx="4" ry="4" height="26" stroke="none"/>
    </g>
    <g text-rendering="geometricPrecision" stroke-miterlimit="1.45" shape-rendering="geometricPrecision" font-family="sans-serif" transform="matrix(1,0,0,1,-122,-73)" stroke-linecap="butt">
      <text x="445.7856" xml:space="preserve" y="162.1543" clip-path="url(#clipPath2)" stroke="none">parse file</text>
      <rect x="408.6" y="145" clip-path="url(#clipPath2)" fill="none" width="130" rx="4" ry="4" height="26"/>
    </g>
    <g fill="rgb(153,204,0)" text-rendering="geometricPrecision" shape-rendering="geometricPrecision" transform="matrix(1,0,0,1,-122,-73)" stroke="rgb(153,204,0)">
      <rect x="408.6" y="176.5" clip-path="url(#clipPath2)" width="130" rx="4" ry="4" height="26" stroke="none"/>
    </g>
    <g text-rendering="geometricPrecision" stroke-miterlimit="1.45" shape-rendering="geometricPrecision" font-family="sans-serif" transform="matrix(1,0,0,1,-122,-73)" stroke-linecap="butt">
      <text x="445.7856" xml:space="preserve" y="193.6543" clip-path="url(#clipPath2)" stroke="none">parse file</text>
      <rect x="408.6" y="176.5" clip-path="url(#clipPath2)" fill="none" width="130" rx="4" ry="4" height="26"/>
    </g>
    <g fill="rgb(153,204,0)" text-rendering="geometricPrecision" shape-rendering="geometricPrecision" transform="matrix(1,0,0,1,-122,-73)" stroke="rgb(153,204,0)">
      <rect x="408.6" y="208" clip-path="url(#clipPath2)" width="130" rx="4" ry="4" height="26" stroke="none"/>
    </g>
    <g text-rendering="geometricPrecision" stroke-miterlimit="1.45" shape-rendering="geometricPrecision" font-family="sans-serif" transform="matrix(1,0,0,1,-122,-73)" stroke-linecap="butt">
      <text x="445.7856" xml:space="preserve" y="225.1543" clip-path="url(#clipPath2)" stroke="none">parse file</text>
      <rect x="408.6" y="208" clip-path="url(#clipPath2)" fill="none" width="130" rx="4" ry="4" height="26"/>
    </g>
    <g fill="rgb(51,204,204)" text-rendering="geometricPrecision" shape-rendering="geometricPrecision" transform="matrix(1,0,0,1,-122,-73)" stroke="rgb(51,204,204)">
      <rect x="408.6" y="239.5" clip-path="url(#clipPath2)" width="130" rx="4" ry="4" height="26" stroke="none"/>
    </g>
    <g text-rendering="geometricPrecision" stroke-miterlimit="1.45" shape-rendering="geometricPrecision" font-family="sans-serif" transform="matrix(1,0,0,1,-122,-73)" stroke-linecap="butt">
      <text x="439.3637" xml:space="preserve" y="256.6543" clip-path="url(#clipPath2)" stroke="none">analyse file</text>
      <rect x="408.6" y="239.5" clip-path="url(#clipPath2)" fill="none" width="130" rx="4" ry="4" height="26"/>
    </g>
    <g fill="rgb(51,204,204)" text-rendering="geometricPrecision" shape-rendering="geometricPrecision" transform="matrix(1,0,0,1,-122,-73)" stroke="rgb(51,204,204)">
      <rect x="408.6" y="271" clip-path="url(#clipPath2)" width="130" rx="4" ry="4" height="26" stroke="none"/>
    </g>
    <g text-rendering="geometricPrecision" stroke-miterlimit="1.45" shape-rendering="geometricPrecision" font-family="sans-serif" transform="matrix(1,0,0,1,-122,-73)" stroke-linecap="butt">
      <text x="439.3637" xml:space="preserve" y="288.1543" clip-path="url(#clipPath2)" stroke="none">analyse file</text>
      <rect x="408.6" y="271" clip-path="url(#clipPath2)" fill="none" width="130" rx="4" ry="4" height="26"/>
    </g>
    <g fill="rgb(51,204,204)" text-rendering="geometricPrecision" shape-rendering="geometricPrecision" transform="matrix(1,0,0,1,-122,-73)" stroke="rgb(51,204,204)">
      <rect x="408.6" y="302.5" clip-path="url(#clipPath2)" width="130" rx="4" ry="4" height="26" stroke="none"/>
    </g>
    <g text-rendering="geometricPrecision" stroke-miterlimit="1.45" shape-rendering="geometricPrecision" font-family="sans-serif" transform="matrix(1,0,0,1,-122,-73)" stroke-linecap="butt">
      <text x="439.3637" xml:space="preserve" y="319.6543" clip-path="url(#clipPath2)" stroke="none">analyse file</text>
      <rect x="408.6" y="302.5" clip-path="url(#clipPath2)" fill="none" width="130" rx="4" ry="4" height="26"/>
    </g>
    <g fill="rgb(51,204,204)" text-rendering="geometricPrecision" shape-rendering="geometricPrecision" transform="matrix(1,0,0,1,-122,-73)" stroke="rgb(51,204,204)">
      <rect x="410" y="334" clip-path="url(#clipPath2)" width="130" rx="4" ry="4" height="26" stroke="none"/>
    </g>
    <g text-rendering="geometricPrecision" stroke-miterlimit="1.45" shape-rendering="geometricPrecision" font-family="sans-serif" transform="matrix(1,0,0,1,-122,-73)" stroke-linecap="butt">
      <text x="440.7637" xml:space="preserve" y="351.1543" clip-path="url(#clipPath2)" stroke="none">analyse file</text>
      <rect x="410" y="334" clip-path="url(#clipPath2)" fill="none" width="130" rx="4" ry="4" height="26"/>
    </g>
    <g fill="rgb(255,153,0)" text-rendering="geometricPrecision" shape-rendering="geometricPrecision" transform="matrix(1,0,0,1,-122,-73)" stroke="rgb(255,153,0)">
      <rect x="410" y="456.5" clip-path="url(#clipPath2)" width="130" rx="4" ry="4" height="32" stroke="none"/>
    </g>
    <g text-rendering="geometricPrecision" stroke-miterlimit="1.45" shape-rendering="geometricPrecision" font-family="sans-serif" transform="matrix(1,0,0,1,-122,-73)" stroke-linecap="butt">
      <text x="429.6426" xml:space="preserve" y="476.6543" clip-path="url(#clipPath2)" stroke="none">link module.o's</text>
      <rect x="410" y="456.5" clip-path="url(#clipPath2)" fill="none" width="130" rx="4" ry="4" height="32"/>
    </g>
    <g fill="rgb(255,204,0)" text-rendering="geometricPrecision" shape-rendering="geometricPrecision" transform="matrix(1,0,0,1,-122,-73)" stroke="rgb(255,204,0)">
      <rect x="410" y="365.5" clip-path="url(#clipPath2)" width="130" rx="4" ry="4" height="40" stroke="none"/>
    </g>
    <g text-rendering="geometricPrecision" stroke-miterlimit="1.45" shape-rendering="geometricPrecision" font-family="sans-serif" transform="matrix(1,0,0,1,-122,-73)" stroke-linecap="butt">
      <text x="431.4414" xml:space="preserve" y="382.6699" clip-path="url(#clipPath2)" stroke="none">generate code</text>
      <text x="431.4414" xml:space="preserve" y="396.6387" clip-path="url(#clipPath2)" stroke="none">per module</text>
      <rect x="410" y="365.5" clip-path="url(#clipPath2)" fill="none" width="130" rx="4" ry="4" height="40"/>
    </g>
  </g>
</svg>
