<?xml version="1.0" encoding="UTF-8"?><svg xmlns="http://www.w3.org/2000/svg" xmlns:xlink="http://www.w3.org/1999/xlink" fill-opacity="1" color-rendering="auto" color-interpolation="auto" text-rendering="auto" stroke="black" stroke-linecap="square" width="683" stroke-miterlimit="10" shape-rendering="auto" stroke-opacity="1" fill="black" stroke-dasharray="none" font-weight="normal" stroke-width="1" height="407" font-family="'Dialog'" font-style="normal" stroke-linejoin="miter" font-size="12px" stroke-dashoffset="0" image-rendering="auto">
  <!--Generated by ySVG 2.5-->
  <defs id="genericDefs"/>
  <g>
    <defs id="defs1">
      <clipPath clipPathUnits="userSpaceOnUse" id="clipPath1">
        <path d="M0 0 L683 0 L683 407 L0 407 L0 0 Z"/>
      </clipPath>
      <clipPath clipPathUnits="userSpaceOnUse" id="clipPath2">
        <path d="M-5 234 L678 234 L678 641 L-5 641 L-5 234 Z"/>
      </clipPath>
      <clipPath clipPathUnits="userSpaceOnUse" id="clipPath3">
        <path d="M255.6542 -19.0156 L255.6542 663.9844 L-151.3458 663.9844 L-151.3458 -19.0156 L255.6542 -19.0156 Z"/>
      </clipPath>
    </defs>
    <g fill="white" text-rendering="geometricPrecision" shape-rendering="geometricPrecision" transform="translate(5,-234)" stroke="white">
      <rect x="-5" width="683" height="407" y="234" clip-path="url(#clipPath2)" stroke="none"/>
    </g>
    <g fill="silver" text-rendering="geometricPrecision" shape-rendering="geometricPrecision" transform="matrix(1,0,0,1,5,-234)" stroke="silver">
      <rect x="36" width="626.6" height="26" y="600" clip-path="url(#clipPath2)" stroke="none"/>
      <rect x="333.7443" width="31.1113" height="17.9688" y="604.0156" clip-path="url(#clipPath2)" stroke="none"/>
    </g>
    <g text-rendering="geometricPrecision" stroke-miterlimit="1.45" shape-rendering="geometricPrecision" font-family="sans-serif" transform="matrix(1,0,0,1,5,-234)" stroke-linecap="butt">
      <text x="335.7443" xml:space="preserve" y="617.1543" clip-path="url(#clipPath2)" stroke="none">time</text>
      <rect fill="none" x="36" width="626.6" height="26" y="600" clip-path="url(#clipPath2)"/>
    </g>
    <g fill="rgb(153,255,153)" text-rendering="geometricPrecision" shape-rendering="geometricPrecision" transform="matrix(1,0,0,1,5,-234)" stroke="rgb(153,255,153)">
      <ellipse rx="59" ry="15" clip-path="url(#clipPath2)" cx="548.2" cy="408.7" stroke="none"/>
    </g>
    <g text-rendering="geometricPrecision" stroke-miterlimit="1.45" shape-rendering="geometricPrecision" font-family="sans-serif" transform="matrix(1,0,0,1,5,-234)" stroke-linecap="butt">
      <text x="534.7498" xml:space="preserve" y="405.8699" clip-path="url(#clipPath2)" stroke="none">Rust</text>
      <text x="532.9305" xml:space="preserve" y="419.8387" clip-path="url(#clipPath2)" stroke="none">2012</text>
      <ellipse rx="59" fill="none" ry="15" clip-path="url(#clipPath2)" cx="548.2" cy="408.7"/>
    </g>
    <g fill="rgb(153,255,153)" text-rendering="geometricPrecision" shape-rendering="geometricPrecision" transform="matrix(1,0,0,1,5,-234)" stroke="rgb(153,255,153)">
      <ellipse rx="59" ry="15" clip-path="url(#clipPath2)" cx="110.5" cy="571" stroke="none"/>
    </g>
    <g text-rendering="geometricPrecision" stroke-miterlimit="1.45" shape-rendering="geometricPrecision" font-family="sans-serif" transform="matrix(1,0,0,1,5,-234)" stroke-linecap="butt">
      <text x="106.3105" xml:space="preserve" y="568.1699" clip-path="url(#clipPath2)" stroke="none">C</text>
      <text x="95.2305" xml:space="preserve" y="582.1387" clip-path="url(#clipPath2)" stroke="none">1972</text>
      <ellipse rx="59" fill="none" ry="15" clip-path="url(#clipPath2)" cx="110.5" cy="571"/>
    </g>
    <g fill="rgb(153,255,153)" text-rendering="geometricPrecision" shape-rendering="geometricPrecision" transform="matrix(1,0,0,1,5,-234)" stroke="rgb(153,255,153)">
      <ellipse rx="59" ry="15" clip-path="url(#clipPath2)" cx="192.5" cy="450.88" stroke="none"/>
    </g>
    <g text-rendering="geometricPrecision" stroke-miterlimit="1.45" shape-rendering="geometricPrecision" font-family="sans-serif" transform="matrix(1,0,0,1,5,-234)" stroke-linecap="butt">
      <text x="178.2559" xml:space="preserve" y="448.0499" clip-path="url(#clipPath2)" stroke="none">C++</text>
      <text x="177.2305" xml:space="preserve" y="462.0187" clip-path="url(#clipPath2)" stroke="none">1983</text>
      <ellipse rx="59" fill="none" ry="15" clip-path="url(#clipPath2)" cx="192.5" cy="450.88"/>
    </g>
    <g fill="rgb(153,255,153)" text-rendering="geometricPrecision" shape-rendering="geometricPrecision" transform="matrix(1,0,0,1,5,-234)" stroke="rgb(153,255,153)">
      <ellipse rx="59" ry="15" clip-path="url(#clipPath2)" cx="376.4" cy="378.7" stroke="none"/>
    </g>
    <g text-rendering="geometricPrecision" stroke-miterlimit="1.45" shape-rendering="geometricPrecision" font-family="sans-serif" transform="matrix(1,0,0,1,5,-234)" stroke-linecap="butt">
      <text x="371.7799" xml:space="preserve" y="375.8699" clip-path="url(#clipPath2)" stroke="none">D</text>
      <text x="361.1305" xml:space="preserve" y="389.8387" clip-path="url(#clipPath2)" stroke="none">2001</text>
      <ellipse rx="59" fill="none" ry="15" clip-path="url(#clipPath2)" cx="376.4" cy="378.7"/>
    </g>
    <g fill="rgb(153,255,153)" text-rendering="geometricPrecision" shape-rendering="geometricPrecision" transform="matrix(1,0,0,1,5,-234)" stroke="rgb(153,255,153)">
      <ellipse rx="59" ry="15" clip-path="url(#clipPath2)" cx="488" cy="348.7" stroke="none"/>
    </g>
    <g text-rendering="geometricPrecision" stroke-miterlimit="1.45" shape-rendering="geometricPrecision" font-family="sans-serif" transform="matrix(1,0,0,1,5,-234)" stroke-linecap="butt">
      <text x="479.6797" xml:space="preserve" y="345.8699" clip-path="url(#clipPath2)" stroke="none">Go</text>
      <text x="472.7305" xml:space="preserve" y="359.8387" clip-path="url(#clipPath2)" stroke="none">2009</text>
      <ellipse rx="59" fill="none" ry="15" clip-path="url(#clipPath2)" cx="488" cy="348.7"/>
    </g>
    <g fill="rgb(153,255,153)" text-rendering="geometricPrecision" shape-rendering="geometricPrecision" transform="matrix(1,0,0,1,5,-234)" stroke="rgb(153,255,153)">
      <ellipse rx="59" ry="15" clip-path="url(#clipPath2)" cx="249.76" cy="301.38" stroke="none"/>
    </g>
    <g text-rendering="geometricPrecision" stroke-miterlimit="1.45" shape-rendering="geometricPrecision" font-family="sans-serif" transform="matrix(1,0,0,1,5,-234)" stroke-linecap="butt">
      <text x="237.0862" xml:space="preserve" y="298.5499" clip-path="url(#clipPath2)" stroke="none">Java</text>
      <text x="234.4905" xml:space="preserve" y="312.5187" clip-path="url(#clipPath2)" stroke="none">1995</text>
      <ellipse rx="59" fill="none" ry="15" clip-path="url(#clipPath2)" cx="249.76" cy="301.38"/>
    </g>
    <g fill="silver" text-rendering="geometricPrecision" shape-rendering="geometricPrecision" transform="matrix(1,0,0,1,5,-234)" stroke="silver">
      <rect x="10" width="26" height="376.84" y="249.16" clip-path="url(#clipPath2)" stroke="none"/>
    </g>
    <g fill="silver" text-rendering="geometricPrecision" shape-rendering="geometricPrecision" transform="matrix(-0,-1,1,-0,19.0156,255.6542)" stroke="silver">
      <rect x="0" width="104.1484" height="17.9688" y="0" clip-path="url(#clipPath3)" stroke="none"/>
    </g>
    <g text-rendering="geometricPrecision" stroke-miterlimit="1.45" shape-rendering="geometricPrecision" font-family="sans-serif" transform="matrix(-0,-1,1,-0,19.0156,255.6542)" stroke-linecap="butt">
      <text x="2" xml:space="preserve" y="13.1387" clip-path="url(#clipPath3)" stroke="none">abstraction level</text>
    </g>
    <g text-rendering="geometricPrecision" stroke-miterlimit="1.45" shape-rendering="geometricPrecision" transform="matrix(1,0,0,1,5,-234)" stroke-linecap="butt">
      <rect fill="none" x="10" width="26" height="376.84" y="249.16" clip-path="url(#clipPath2)"/>
    </g>
    <g fill="rgb(153,255,153)" text-rendering="geometricPrecision" shape-rendering="geometricPrecision" transform="matrix(1,0,0,1,5,-234)" stroke="rgb(153,255,153)">
      <ellipse rx="59" ry="15" clip-path="url(#clipPath2)" cx="362" cy="316.02" stroke="none"/>
    </g>
    <g text-rendering="geometricPrecision" stroke-miterlimit="1.45" shape-rendering="geometricPrecision" font-family="sans-serif" transform="matrix(1,0,0,1,5,-234)" stroke-linecap="butt">
      <text x="352.7832" xml:space="preserve" y="313.1899" clip-path="url(#clipPath2)" stroke="none">C#</text>
      <text x="346.7305" xml:space="preserve" y="327.1587" clip-path="url(#clipPath2)" stroke="none">2000</text>
      <ellipse rx="59" fill="none" ry="15" clip-path="url(#clipPath2)" cx="362" cy="316.02"/>
    </g>
    <g fill="rgb(153,255,153)" text-rendering="geometricPrecision" shape-rendering="geometricPrecision" transform="matrix(1,0,0,1,5,-234)" stroke="rgb(153,255,153)">
      <ellipse rx="59" ry="15" clip-path="url(#clipPath2)" cx="597.2" cy="555" stroke="none"/>
    </g>
    <g text-rendering="geometricPrecision" stroke-miterlimit="1.45" shape-rendering="geometricPrecision" font-family="sans-serif" transform="matrix(1,0,0,1,5,-234)" stroke-linecap="butt">
      <text x="589.1932" xml:space="preserve" y="552.1699" clip-path="url(#clipPath2)" stroke="none">C2</text>
      <text x="581.9305" xml:space="preserve" y="566.1387" clip-path="url(#clipPath2)" stroke="none">2013</text>
      <ellipse rx="59" fill="none" ry="15" clip-path="url(#clipPath2)" cx="597.2" cy="555"/>
    </g>
  </g>
</svg>
