<?xml version="1.0" encoding="UTF-8"?><svg xmlns="http://www.w3.org/2000/svg" xmlns:xlink="http://www.w3.org/1999/xlink" fill-opacity="1" color-rendering="auto" color-interpolation="auto" text-rendering="auto" stroke="black" stroke-linecap="square" width="430" stroke-miterlimit="10" shape-rendering="auto" stroke-opacity="1" fill="black" stroke-dasharray="none" font-weight="normal" stroke-width="1" height="426" font-family="'Dialog'" font-style="normal" stroke-linejoin="miter" font-size="12px" stroke-dashoffset="0" image-rendering="auto">
  <!--Generated by ySVG 2.5-->
  <defs id="genericDefs"/>
  <g>
    <defs id="defs1">
      <clipPath clipPathUnits="userSpaceOnUse" id="clipPath1">
        <path d="M0 0 L430 0 L430 426 L0 426 L0 0 Z"/>
      </clipPath>
      <clipPath clipPathUnits="userSpaceOnUse" id="clipPath2">
        <path d="M93 73 L523 73 L523 499 L93 499 L93 73 Z"/>
      </clipPath>
    </defs>
    <g fill="white" text-rendering="geometricPrecision" shape-rendering="geometricPrecision" transform="translate(-93,-73)" stroke="white">
      <rect x="93" width="430" height="426" y="73" clip-path="url(#clipPath2)" stroke="none"/>
    </g>
    <g fill="silver" text-rendering="geometricPrecision" shape-rendering="geometricPrecision" transform="matrix(1,0,0,1,-93,-73)" stroke="silver">
      <rect x="109" width="176" height="161.4" y="322.46" clip-path="url(#clipPath2)" stroke="none"/>
      <rect x="113" width="29.459" height="17.9688" y="326.46" clip-path="url(#clipPath2)" stroke="none"/>
    </g>
    <g text-rendering="geometricPrecision" stroke-miterlimit="1.45" shape-rendering="geometricPrecision" font-family="sans-serif" transform="matrix(1,0,0,1,-93,-73)" stroke-linecap="butt">
      <text x="115" xml:space="preserve" y="339.5987" clip-path="url(#clipPath2)" stroke="none">llvm</text>
      <rect fill="none" x="109" width="176" height="161.4" y="322.46" clip-path="url(#clipPath2)"/>
    </g>
    <g fill="rgb(153,204,0)" text-rendering="geometricPrecision" shape-rendering="geometricPrecision" transform="matrix(1,0,0,1,-93,-73)" stroke="rgb(153,204,0)">
      <rect x="132" y="380.06" clip-path="url(#clipPath2)" width="130" rx="4" ry="4" height="26" stroke="none"/>
    </g>
    <g text-rendering="geometricPrecision" stroke-miterlimit="1.45" shape-rendering="geometricPrecision" font-family="sans-serif" transform="matrix(1,0,0,1,-93,-73)" stroke-linecap="butt">
      <text x="155.4922" xml:space="preserve" y="397.2143" clip-path="url(#clipPath2)" stroke="none">Optimizations</text>
      <rect x="132" y="380.06" clip-path="url(#clipPath2)" fill="none" width="130" rx="4" ry="4" height="26"/>
    </g>
    <g fill="rgb(153,204,0)" text-rendering="geometricPrecision" shape-rendering="geometricPrecision" transform="matrix(1,0,0,1,-93,-73)" stroke="rgb(153,204,0)">
      <rect x="132" y="347.16" clip-path="url(#clipPath2)" width="130" rx="4" ry="4" height="26" stroke="none"/>
    </g>
    <g text-rendering="geometricPrecision" stroke-miterlimit="1.45" shape-rendering="geometricPrecision" font-family="sans-serif" transform="matrix(1,0,0,1,-93,-73)" stroke-linecap="butt">
      <text x="191.0615" xml:space="preserve" y="364.3143" clip-path="url(#clipPath2)" stroke="none">IR</text>
      <rect x="132" y="347.16" clip-path="url(#clipPath2)" fill="none" width="130" rx="4" ry="4" height="26"/>
    </g>
    <g fill="silver" text-rendering="geometricPrecision" shape-rendering="geometricPrecision" transform="matrix(1,0,0,1,-93,-73)" stroke="silver">
      <rect x="331.8" width="176" height="189.6339" y="88.46" clip-path="url(#clipPath2)" stroke="none"/>
      <rect x="335.8" width="70.4629" height="17.9688" y="92.46" clip-path="url(#clipPath2)" stroke="none"/>
    </g>
    <g text-rendering="geometricPrecision" stroke-miterlimit="1.45" shape-rendering="geometricPrecision" font-family="sans-serif" transform="matrix(1,0,0,1,-93,-73)" stroke-linecap="butt">
      <text x="337.8" xml:space="preserve" y="105.5987" clip-path="url(#clipPath2)" stroke="none">c2compiler</text>
      <rect fill="none" x="331.8" width="176" height="189.6339" y="88.46" clip-path="url(#clipPath2)"/>
    </g>
    <g fill="rgb(153,204,0)" text-rendering="geometricPrecision" shape-rendering="geometricPrecision" transform="matrix(1,0,0,1,-93,-73)" stroke="rgb(153,204,0)">
      <rect x="132" y="412.96" clip-path="url(#clipPath2)" width="130" rx="4" ry="4" height="26" stroke="none"/>
    </g>
    <g text-rendering="geometricPrecision" stroke-miterlimit="1.45" shape-rendering="geometricPrecision" font-family="sans-serif" transform="matrix(1,0,0,1,-93,-73)" stroke-linecap="butt">
      <text x="146.7207" xml:space="preserve" y="430.1143" clip-path="url(#clipPath2)" stroke="none">Code-generators</text>
      <rect x="132" y="412.96" clip-path="url(#clipPath2)" fill="none" width="130" rx="4" ry="4" height="26"/>
    </g>
    <g fill="silver" text-rendering="geometricPrecision" shape-rendering="geometricPrecision" transform="matrix(1,0,0,1,-93,-73)" stroke="silver">
      <rect x="109" width="176" height="228.36" y="88.8" clip-path="url(#clipPath2)" stroke="none"/>
      <rect x="113" width="36.5078" height="17.9688" y="92.8" clip-path="url(#clipPath2)" stroke="none"/>
    </g>
    <g text-rendering="geometricPrecision" stroke-miterlimit="1.45" shape-rendering="geometricPrecision" font-family="sans-serif" transform="matrix(1,0,0,1,-93,-73)" stroke-linecap="butt">
      <text x="115" xml:space="preserve" y="105.9387" clip-path="url(#clipPath2)" stroke="none">clang</text>
      <rect fill="none" x="109" width="176" height="228.36" y="88.8" clip-path="url(#clipPath2)"/>
    </g>
    <g fill="rgb(204,255,204)" text-rendering="geometricPrecision" shape-rendering="geometricPrecision" transform="matrix(1,0,0,1,-93,-73)" stroke="rgb(204,255,204)">
      <rect x="132" y="146.4" clip-path="url(#clipPath2)" width="130" rx="4" ry="4" height="26" stroke="none"/>
    </g>
    <g text-rendering="geometricPrecision" stroke-miterlimit="1.45" shape-rendering="geometricPrecision" font-family="sans-serif" transform="matrix(1,0,0,1,-93,-73)" stroke-linecap="butt">
      <text x="152.0908" xml:space="preserve" y="163.5543" clip-path="url(#clipPath2)" stroke="none">Parser + Sema</text>
      <rect x="132" y="146.4" clip-path="url(#clipPath2)" fill="none" width="130" rx="4" ry="4" height="26"/>
    </g>
    <g fill="rgb(255,153,0)" text-rendering="geometricPrecision" shape-rendering="geometricPrecision" transform="matrix(1,0,0,1,-93,-73)" stroke="rgb(255,153,0)">
      <rect x="132" y="113.5" clip-path="url(#clipPath2)" width="130" rx="4" ry="4" height="26" stroke="none"/>
    </g>
    <g text-rendering="geometricPrecision" stroke-miterlimit="1.45" shape-rendering="geometricPrecision" font-family="sans-serif" transform="matrix(1,0,0,1,-93,-73)" stroke-linecap="butt">
      <text x="180.2568" xml:space="preserve" y="130.6543" clip-path="url(#clipPath2)" stroke="none">Lexer</text>
      <rect x="132" y="113.5" clip-path="url(#clipPath2)" fill="none" width="130" rx="4" ry="4" height="26"/>
    </g>
    <g fill="rgb(204,255,204)" text-rendering="geometricPrecision" shape-rendering="geometricPrecision" transform="matrix(1,0,0,1,-93,-73)" stroke="rgb(204,255,204)">
      <rect x="132" y="179.3" clip-path="url(#clipPath2)" width="130" rx="4" ry="4" height="26" stroke="none"/>
    </g>
    <g text-rendering="geometricPrecision" stroke-miterlimit="1.45" shape-rendering="geometricPrecision" font-family="sans-serif" transform="matrix(1,0,0,1,-93,-73)" stroke-linecap="butt">
      <text x="185.4219" xml:space="preserve" y="196.4543" clip-path="url(#clipPath2)" stroke="none">AST</text>
      <rect x="132" y="179.3" clip-path="url(#clipPath2)" fill="none" width="130" rx="4" ry="4" height="26"/>
    </g>
    <g fill="rgb(51,204,204)" text-rendering="geometricPrecision" shape-rendering="geometricPrecision" transform="matrix(1,0,0,1,-93,-73)" stroke="rgb(51,204,204)">
      <rect x="353.4" y="113.5" clip-path="url(#clipPath2)" width="130" rx="4" ry="4" height="26" stroke="none"/>
    </g>
    <g text-rendering="geometricPrecision" stroke-miterlimit="1.45" shape-rendering="geometricPrecision" font-family="sans-serif" transform="matrix(1,0,0,1,-93,-73)" stroke-linecap="butt">
      <text x="399.3541" xml:space="preserve" y="130.6543" clip-path="url(#clipPath2)" stroke="none">Parser</text>
      <rect x="353.4" y="113.5" clip-path="url(#clipPath2)" fill="none" width="130" rx="4" ry="4" height="26"/>
    </g>
    <g fill="rgb(51,204,204)" text-rendering="geometricPrecision" shape-rendering="geometricPrecision" transform="matrix(1,0,0,1,-93,-73)" stroke="rgb(51,204,204)">
      <rect x="353.4" y="145" clip-path="url(#clipPath2)" width="130" rx="4" ry="4" height="26" stroke="none"/>
    </g>
    <g text-rendering="geometricPrecision" stroke-miterlimit="1.45" shape-rendering="geometricPrecision" font-family="sans-serif" transform="matrix(1,0,0,1,-93,-73)" stroke-linecap="butt">
      <text x="406.8219" xml:space="preserve" y="162.1543" clip-path="url(#clipPath2)" stroke="none">AST</text>
      <rect x="353.4" y="145" clip-path="url(#clipPath2)" fill="none" width="130" rx="4" ry="4" height="26"/>
    </g>
    <g fill="rgb(51,204,204)" text-rendering="geometricPrecision" shape-rendering="geometricPrecision" transform="matrix(1,0,0,1,-93,-73)" stroke="rgb(51,204,204)">
      <rect x="353.4" y="176.5" clip-path="url(#clipPath2)" width="130" rx="4" ry="4" height="26" stroke="none"/>
    </g>
    <g text-rendering="geometricPrecision" stroke-miterlimit="1.45" shape-rendering="geometricPrecision" font-family="sans-serif" transform="matrix(1,0,0,1,-93,-73)" stroke-linecap="butt">
      <text x="392.3141" xml:space="preserve" y="193.6543" clip-path="url(#clipPath2)" stroke="none">Analyser</text>
      <rect x="353.4" y="176.5" clip-path="url(#clipPath2)" fill="none" width="130" rx="4" ry="4" height="26"/>
    </g>
    <g fill="rgb(51,204,204)" text-rendering="geometricPrecision" shape-rendering="geometricPrecision" transform="matrix(1,0,0,1,-93,-73)" stroke="rgb(51,204,204)">
      <rect x="354.8" y="208" clip-path="url(#clipPath2)" width="130" rx="4" ry="4" height="26" stroke="none"/>
    </g>
    <g text-rendering="geometricPrecision" stroke-miterlimit="1.45" shape-rendering="geometricPrecision" font-family="sans-serif" transform="matrix(1,0,0,1,-93,-73)" stroke-linecap="butt">
      <text x="383.8176" xml:space="preserve" y="225.1543" clip-path="url(#clipPath2)" stroke="none">C-generator</text>
      <rect x="354.8" y="208" clip-path="url(#clipPath2)" fill="none" width="130" rx="4" ry="4" height="26"/>
    </g>
    <g fill="rgb(204,255,204)" text-rendering="geometricPrecision" shape-rendering="geometricPrecision" transform="matrix(1,0,0,1,-93,-73)" stroke="rgb(204,255,204)">
      <rect x="132" y="212.2" clip-path="url(#clipPath2)" width="130" rx="4" ry="4" height="26" stroke="none"/>
    </g>
    <g text-rendering="geometricPrecision" stroke-miterlimit="1.45" shape-rendering="geometricPrecision" font-family="sans-serif" transform="matrix(1,0,0,1,-93,-73)" stroke-linecap="butt">
      <text x="169.4961" xml:space="preserve" y="229.3543" clip-path="url(#clipPath2)" stroke="none">CodeGen</text>
      <rect x="132" y="212.2" clip-path="url(#clipPath2)" fill="none" width="130" rx="4" ry="4" height="26"/>
    </g>
    <g fill="rgb(255,153,0)" text-rendering="geometricPrecision" shape-rendering="geometricPrecision" transform="matrix(1,0,0,1,-93,-73)" stroke="rgb(255,153,0)">
      <rect x="132" y="245.1" clip-path="url(#clipPath2)" width="130" rx="4" ry="4" height="26" stroke="none"/>
    </g>
    <g text-rendering="geometricPrecision" stroke-miterlimit="1.45" shape-rendering="geometricPrecision" font-family="sans-serif" transform="matrix(1,0,0,1,-93,-73)" stroke-linecap="butt">
      <text x="162.1836" xml:space="preserve" y="262.2543" clip-path="url(#clipPath2)" stroke="none">Diagnostics</text>
      <rect x="132" y="245.1" clip-path="url(#clipPath2)" fill="none" width="130" rx="4" ry="4" height="26"/>
    </g>
    <g fill="rgb(153,204,0)" text-rendering="geometricPrecision" shape-rendering="geometricPrecision" transform="matrix(1,0,0,1,-93,-73)" stroke="rgb(153,204,0)">
      <rect x="132" y="278" clip-path="url(#clipPath2)" width="130" rx="4" ry="4" height="26" stroke="none"/>
    </g>
    <g text-rendering="geometricPrecision" stroke-miterlimit="1.45" shape-rendering="geometricPrecision" font-family="sans-serif" transform="matrix(1,0,0,1,-93,-73)" stroke-linecap="butt">
      <text x="183.7959" xml:space="preserve" y="295.1543" clip-path="url(#clipPath2)" stroke="none">Utils</text>
      <rect x="132" y="278" clip-path="url(#clipPath2)" fill="none" width="130" rx="4" ry="4" height="26"/>
    </g>
    <g fill="rgb(153,204,0)" text-rendering="geometricPrecision" shape-rendering="geometricPrecision" transform="matrix(1,0,0,1,-93,-73)" stroke="rgb(153,204,0)">
      <rect x="132" y="445.86" clip-path="url(#clipPath2)" width="130" rx="4" ry="4" height="26" stroke="none"/>
    </g>
    <g text-rendering="geometricPrecision" stroke-miterlimit="1.45" shape-rendering="geometricPrecision" font-family="sans-serif" transform="matrix(1,0,0,1,-93,-73)" stroke-linecap="butt">
      <text x="183.7959" xml:space="preserve" y="463.0143" clip-path="url(#clipPath2)" stroke="none">Utils</text>
      <rect x="132" y="445.86" clip-path="url(#clipPath2)" fill="none" width="130" rx="4" ry="4" height="26"/>
    </g>
    <g fill="rgb(51,204,204)" text-rendering="geometricPrecision" shape-rendering="geometricPrecision" transform="matrix(1,0,0,1,-93,-73)" stroke="rgb(51,204,204)">
      <rect x="354.8" y="239.5" clip-path="url(#clipPath2)" width="130" rx="4" ry="4" height="26" stroke="none"/>
    </g>
    <g text-rendering="geometricPrecision" stroke-miterlimit="1.45" shape-rendering="geometricPrecision" font-family="sans-serif" transform="matrix(1,0,0,1,-93,-73)" stroke-linecap="butt">
      <text x="382.0685" xml:space="preserve" y="256.6543" clip-path="url(#clipPath2)" stroke="none">IR-generator</text>
      <rect x="354.8" y="239.5" clip-path="url(#clipPath2)" fill="none" width="130" rx="4" ry="4" height="26"/>
    </g>
  </g>
</svg>
