<?xml version="1.0" encoding="UTF-8"?><svg xmlns="http://www.w3.org/2000/svg" xmlns:xlink="http://www.w3.org/1999/xlink" fill-opacity="1" color-rendering="auto" color-interpolation="auto" text-rendering="auto" stroke="black" stroke-linecap="square" width="1010" stroke-miterlimit="10" shape-rendering="auto" stroke-opacity="1" fill="black" stroke-dasharray="none" font-weight="normal" stroke-width="1" height="649" font-family="'Dialog'" font-style="normal" stroke-linejoin="miter" font-size="12px" stroke-dashoffset="0" image-rendering="auto">
  <!--Generated by ySVG 2.5-->
  <defs id="genericDefs"/>
  <g>
    <defs id="defs1">
      <clipPath clipPathUnits="userSpaceOnUse" id="clipPath1">
        <path d="M0 0 L1010 0 L1010 649 L0 649 L0 0 Z"/>
      </clipPath>
      <clipPath clipPathUnits="userSpaceOnUse" id="clipPath2">
        <path d="M197 31 L1207 31 L1207 680 L197 680 L197 31 Z"/>
      </clipPath>
    </defs>
    <g fill="white" text-rendering="geometricPrecision" shape-rendering="geometricPrecision" transform="translate(-197,-31)" stroke="white">
      <rect x="197" width="1010" height="649" y="31" clip-path="url(#clipPath2)" stroke="none"/>
    </g>
    <g fill="rgb(215,215,215)" text-rendering="geometricPrecision" shape-rendering="geometricPrecision" transform="matrix(1,0,0,1,-197,-31)" stroke="rgb(215,215,215)">
      <rect x="212" width="164" height="159" y="213" clip-path="url(#clipPath2)" stroke="none"/>
    </g>
    <g stroke-linecap="butt" transform="matrix(1,0,0,1,-197,-31)" text-rendering="geometricPrecision" font-family="sans-serif" shape-rendering="geometricPrecision" font-weight="bold" stroke-miterlimit="1.45">
      <text x="218" xml:space="preserve" y="230.1387" clip-path="url(#clipPath2)" stroke="none">C2 mylib sources</text>
      <rect fill="none" x="212" width="164" height="159" y="213" clip-path="url(#clipPath2)"/>
    </g>
    <g fill="rgb(204,255,255)" text-rendering="geometricPrecision" shape-rendering="geometricPrecision" transform="matrix(1,0,0,1,-197,-31)" stroke="rgb(204,255,255)">
      <rect x="233" y="246" clip-path="url(#clipPath2)" width="120" rx="4" ry="4" height="26" stroke="none"/>
    </g>
    <g text-rendering="geometricPrecision" stroke-miterlimit="1.45" shape-rendering="geometricPrecision" font-family="sans-serif" transform="matrix(1,0,0,1,-197,-31)" stroke-linecap="butt">
      <text x="264.2129" xml:space="preserve" y="263.1543" clip-path="url(#clipPath2)" stroke="none">recipe.txt</text>
      <rect x="233" y="246" clip-path="url(#clipPath2)" fill="none" width="120" rx="4" ry="4" height="26"/>
    </g>
    <g fill="rgb(255,204,0)" text-rendering="geometricPrecision" shape-rendering="geometricPrecision" transform="matrix(1,0,0,1,-197,-31)" stroke="rgb(255,204,0)">
      <rect x="233" y="285" clip-path="url(#clipPath2)" width="120" rx="4" ry="4" height="26" stroke="none"/>
    </g>
    <g text-rendering="geometricPrecision" stroke-miterlimit="1.45" shape-rendering="geometricPrecision" font-family="sans-serif" transform="matrix(1,0,0,1,-197,-31)" stroke-linecap="butt">
      <text x="267.4385" xml:space="preserve" y="302.1543" clip-path="url(#clipPath2)" stroke="none">mylib.c2</text>
      <rect x="233" y="285" clip-path="url(#clipPath2)" fill="none" width="120" rx="4" ry="4" height="26"/>
    </g>
    <g fill="rgb(255,204,0)" text-rendering="geometricPrecision" shape-rendering="geometricPrecision" transform="matrix(1,0,0,1,-197,-31)" stroke="rgb(255,204,0)">
      <rect x="233" y="324" clip-path="url(#clipPath2)" width="120" rx="4" ry="4" height="26" stroke="none"/>
    </g>
    <g text-rendering="geometricPrecision" stroke-miterlimit="1.45" shape-rendering="geometricPrecision" font-family="sans-serif" transform="matrix(1,0,0,1,-197,-31)" stroke-linecap="butt">
      <text x="248.7002" xml:space="preserve" y="341.1543" clip-path="url(#clipPath2)" stroke="none">mylib_extra.c2</text>
      <rect x="233" y="324" clip-path="url(#clipPath2)" fill="none" width="120" rx="4" ry="4" height="26"/>
    </g>
    <g fill="rgb(215,215,215)" text-rendering="geometricPrecision" shape-rendering="geometricPrecision" transform="matrix(1,0,0,1,-197,-31)" stroke="rgb(215,215,215)">
      <rect x="316" width="164" height="238" y="426.5" clip-path="url(#clipPath2)" stroke="none"/>
    </g>
    <g stroke-linecap="butt" transform="matrix(1,0,0,1,-197,-31)" text-rendering="geometricPrecision" font-family="sans-serif" shape-rendering="geometricPrecision" font-weight="bold" stroke-miterlimit="1.45">
      <text x="322" xml:space="preserve" y="443.6387" clip-path="url(#clipPath2)" stroke="none">c2c C-backend</text>
      <rect fill="none" x="316" width="164" height="238" y="426.5" clip-path="url(#clipPath2)"/>
    </g>
    <g fill="rgb(204,255,255)" text-rendering="geometricPrecision" shape-rendering="geometricPrecision" transform="matrix(1,0,0,1,-197,-31)" stroke="rgb(204,255,255)">
      <rect x="337" y="466" clip-path="url(#clipPath2)" width="120" rx="4" ry="4" height="26" stroke="none"/>
    </g>
    <g text-rendering="geometricPrecision" stroke-miterlimit="1.45" shape-rendering="geometricPrecision" font-family="sans-serif" transform="matrix(1,0,0,1,-197,-31)" stroke-linecap="butt">
      <text x="371.8428" xml:space="preserve" y="483.1543" clip-path="url(#clipPath2)" stroke="none">Makefile</text>
      <rect x="337" y="466" clip-path="url(#clipPath2)" fill="none" width="120" rx="4" ry="4" height="26"/>
    </g>
    <g fill="rgb(153,204,0)" text-rendering="geometricPrecision" shape-rendering="geometricPrecision" transform="matrix(1,0,0,1,-197,-31)" stroke="rgb(153,204,0)">
      <rect x="337" y="505" clip-path="url(#clipPath2)" width="120" rx="4" ry="4" height="26" stroke="none"/>
    </g>
    <g text-rendering="geometricPrecision" stroke-miterlimit="1.45" shape-rendering="geometricPrecision" font-family="sans-serif" transform="matrix(1,0,0,1,-197,-31)" stroke-linecap="butt">
      <text x="374.752" xml:space="preserve" y="522.1543" clip-path="url(#clipPath2)" stroke="none">mylib.h</text>
      <rect x="337" y="505" clip-path="url(#clipPath2)" fill="none" width="120" rx="4" ry="4" height="26"/>
    </g>
    <g fill="rgb(153,204,0)" text-rendering="geometricPrecision" shape-rendering="geometricPrecision" transform="matrix(1,0,0,1,-197,-31)" stroke="rgb(153,204,0)">
      <rect x="337" y="544" clip-path="url(#clipPath2)" width="120" rx="4" ry="4" height="26" stroke="none"/>
    </g>
    <g text-rendering="geometricPrecision" stroke-miterlimit="1.45" shape-rendering="geometricPrecision" font-family="sans-serif" transform="matrix(1,0,0,1,-197,-31)" stroke-linecap="butt">
      <text x="356.0137" xml:space="preserve" y="561.1543" clip-path="url(#clipPath2)" stroke="none">mylib_extra.h</text>
      <rect x="337" y="544" clip-path="url(#clipPath2)" fill="none" width="120" rx="4" ry="4" height="26"/>
    </g>
    <g fill="rgb(153,204,0)" text-rendering="geometricPrecision" shape-rendering="geometricPrecision" transform="matrix(1,0,0,1,-197,-31)" stroke="rgb(153,204,0)">
      <rect x="337" y="583" clip-path="url(#clipPath2)" width="120" rx="4" ry="4" height="26" stroke="none"/>
    </g>
    <g text-rendering="geometricPrecision" stroke-miterlimit="1.45" shape-rendering="geometricPrecision" font-family="sans-serif" transform="matrix(1,0,0,1,-197,-31)" stroke-linecap="butt">
      <text x="375.2559" xml:space="preserve" y="600.1543" clip-path="url(#clipPath2)" stroke="none">mylib.c</text>
      <rect x="337" y="583" clip-path="url(#clipPath2)" fill="none" width="120" rx="4" ry="4" height="26"/>
    </g>
    <g fill="rgb(215,215,215)" text-rendering="geometricPrecision" shape-rendering="geometricPrecision" transform="matrix(1,0,0,1,-197,-31)" stroke="rgb(215,215,215)">
      <rect x="529" width="164" height="278" y="153.5" clip-path="url(#clipPath2)" stroke="none"/>
    </g>
    <g stroke-linecap="butt" transform="matrix(1,0,0,1,-197,-31)" text-rendering="geometricPrecision" font-family="sans-serif" shape-rendering="geometricPrecision" font-weight="bold" stroke-miterlimit="1.45">
      <text x="535" xml:space="preserve" y="170.6387" clip-path="url(#clipPath2)" stroke="none">C2 mylib output</text>
      <rect fill="none" x="529" width="164" height="278" y="153.5" clip-path="url(#clipPath2)"/>
    </g>
    <g fill="rgb(204,255,255)" text-rendering="geometricPrecision" shape-rendering="geometricPrecision" transform="matrix(1,0,0,1,-197,-31)" stroke="rgb(204,255,255)">
      <rect x="550" y="193" clip-path="url(#clipPath2)" width="120" rx="4" ry="4" height="26" stroke="none"/>
    </g>
    <g text-rendering="geometricPrecision" stroke-miterlimit="1.45" shape-rendering="geometricPrecision" font-family="sans-serif" transform="matrix(1,0,0,1,-197,-31)" stroke-linecap="butt">
      <text x="567.0801" xml:space="preserve" y="210.1543" clip-path="url(#clipPath2)" stroke="none">manifest.yaml</text>
      <rect x="550" y="193" clip-path="url(#clipPath2)" fill="none" width="120" rx="4" ry="4" height="26"/>
    </g>
    <g fill="rgb(204,255,204)" text-rendering="geometricPrecision" shape-rendering="geometricPrecision" transform="matrix(1,0,0,1,-197,-31)" stroke="rgb(204,255,204)">
      <rect x="550" y="232" clip-path="url(#clipPath2)" width="120" rx="4" ry="4" height="26" stroke="none"/>
    </g>
    <g text-rendering="geometricPrecision" stroke-miterlimit="1.45" shape-rendering="geometricPrecision" font-family="sans-serif" transform="matrix(1,0,0,1,-197,-31)" stroke-linecap="butt">
      <text x="582.7715" xml:space="preserve" y="249.1543" clip-path="url(#clipPath2)" stroke="none">mylib.c2i</text>
      <rect x="550" y="232" clip-path="url(#clipPath2)" fill="none" width="120" rx="4" ry="4" height="26"/>
    </g>
    <g fill="rgb(204,255,204)" text-rendering="geometricPrecision" shape-rendering="geometricPrecision" transform="matrix(1,0,0,1,-197,-31)" stroke="rgb(204,255,204)">
      <rect x="550" y="271" clip-path="url(#clipPath2)" width="120" rx="4" ry="4" height="26" stroke="none"/>
    </g>
    <g text-rendering="geometricPrecision" stroke-miterlimit="1.45" shape-rendering="geometricPrecision" font-family="sans-serif" transform="matrix(1,0,0,1,-197,-31)" stroke-linecap="butt">
      <text x="564.0332" xml:space="preserve" y="288.1543" clip-path="url(#clipPath2)" stroke="none">mylib_extra.c2i</text>
      <rect x="550" y="271" clip-path="url(#clipPath2)" fill="none" width="120" rx="4" ry="4" height="26"/>
    </g>
    <g fill="rgb(255,153,0)" text-rendering="geometricPrecision" shape-rendering="geometricPrecision" transform="matrix(1,0,0,1,-197,-31)" stroke="rgb(255,153,0)">
      <rect x="550" y="310" clip-path="url(#clipPath2)" width="120" rx="4" ry="4" height="26" stroke="none"/>
    </g>
    <g stroke-linecap="butt" transform="matrix(1,0,0,1,-197,-31)" text-rendering="geometricPrecision" font-family="sans-serif" shape-rendering="geometricPrecision" font-weight="bold" stroke-miterlimit="1.45">
      <text x="585.1006" xml:space="preserve" y="327.1543" clip-path="url(#clipPath2)" stroke="none">mylib.a</text>
      <rect x="550" y="310" clip-path="url(#clipPath2)" fill="none" width="120" rx="4" ry="4" height="26"/>
    </g>
    <g fill="rgb(153,204,0)" text-rendering="geometricPrecision" shape-rendering="geometricPrecision" transform="matrix(1,0,0,1,-197,-31)" stroke="rgb(153,204,0)">
      <rect x="337" y="622" clip-path="url(#clipPath2)" width="120" rx="4" ry="4" height="26" stroke="none"/>
    </g>
    <g text-rendering="geometricPrecision" stroke-miterlimit="1.45" shape-rendering="geometricPrecision" font-family="sans-serif" transform="matrix(1,0,0,1,-197,-31)" stroke-linecap="butt">
      <text x="356.5176" xml:space="preserve" y="639.1543" clip-path="url(#clipPath2)" stroke="none">mylib_extra.c</text>
      <rect x="337" y="622" clip-path="url(#clipPath2)" fill="none" width="120" rx="4" ry="4" height="26"/>
    </g>
    <g fill="rgb(204,255,204)" text-rendering="geometricPrecision" shape-rendering="geometricPrecision" transform="matrix(1,0,0,1,-197,-31)" stroke="rgb(204,255,204)">
      <rect x="550" y="349" clip-path="url(#clipPath2)" width="120" rx="4" ry="4" height="26" stroke="none"/>
    </g>
    <g text-rendering="geometricPrecision" stroke-miterlimit="1.45" shape-rendering="geometricPrecision" font-family="sans-serif" transform="matrix(1,0,0,1,-197,-31)" stroke-linecap="butt">
      <text x="587.752" xml:space="preserve" y="366.1543" clip-path="url(#clipPath2)" stroke="none">mylib.h</text>
      <rect x="550" y="349" clip-path="url(#clipPath2)" fill="none" width="120" rx="4" ry="4" height="26"/>
    </g>
    <g fill="rgb(204,255,204)" text-rendering="geometricPrecision" shape-rendering="geometricPrecision" transform="matrix(1,0,0,1,-197,-31)" stroke="rgb(204,255,204)">
      <rect x="550" y="388" clip-path="url(#clipPath2)" width="120" rx="4" ry="4" height="26" stroke="none"/>
    </g>
    <g text-rendering="geometricPrecision" stroke-miterlimit="1.45" shape-rendering="geometricPrecision" font-family="sans-serif" transform="matrix(1,0,0,1,-197,-31)" stroke-linecap="butt">
      <text x="569.0137" xml:space="preserve" y="405.1543" clip-path="url(#clipPath2)" stroke="none">mylib_extra.h</text>
      <rect x="550" y="388" clip-path="url(#clipPath2)" fill="none" width="120" rx="4" ry="4" height="26"/>
    </g>
    <g fill="rgb(255,204,204)" text-rendering="geometricPrecision" shape-rendering="geometricPrecision" transform="matrix(1,0,0,1,-197,-31)" stroke="rgb(255,204,204)">
      <rect x="805.5" width="164" height="119" y="119" clip-path="url(#clipPath2)" stroke="none"/>
    </g>
    <g stroke-linecap="butt" transform="matrix(1,0,0,1,-197,-31)" text-rendering="geometricPrecision" font-family="sans-serif" shape-rendering="geometricPrecision" font-weight="bold" stroke-miterlimit="1.45">
      <text x="811.5" xml:space="preserve" y="136.1387" clip-path="url(#clipPath2)" stroke="none">C2 application sources</text>
      <rect fill="none" x="805.5" width="164" height="119" y="119" clip-path="url(#clipPath2)"/>
    </g>
    <g fill="rgb(204,255,255)" text-rendering="geometricPrecision" shape-rendering="geometricPrecision" transform="matrix(1,0,0,1,-197,-31)" stroke="rgb(204,255,255)">
      <rect x="826.5" y="152" clip-path="url(#clipPath2)" width="120" rx="4" ry="4" height="26" stroke="none"/>
    </g>
    <g text-rendering="geometricPrecision" stroke-miterlimit="1.45" shape-rendering="geometricPrecision" font-family="sans-serif" transform="matrix(1,0,0,1,-197,-31)" stroke-linecap="butt">
      <text x="857.7129" xml:space="preserve" y="169.1543" clip-path="url(#clipPath2)" stroke="none">recipe.txt</text>
      <rect x="826.5" y="152" clip-path="url(#clipPath2)" fill="none" width="120" rx="4" ry="4" height="26"/>
    </g>
    <g fill="rgb(255,204,0)" text-rendering="geometricPrecision" shape-rendering="geometricPrecision" transform="matrix(1,0,0,1,-197,-31)" stroke="rgb(255,204,0)">
      <rect x="826.5" y="191" clip-path="url(#clipPath2)" width="120" rx="4" ry="4" height="26" stroke="none"/>
    </g>
    <g text-rendering="geometricPrecision" stroke-miterlimit="1.45" shape-rendering="geometricPrecision" font-family="sans-serif" transform="matrix(1,0,0,1,-197,-31)" stroke-linecap="butt">
      <text x="844.3799" xml:space="preserve" y="208.1543" clip-path="url(#clipPath2)" stroke="none">application.c2</text>
      <rect x="826.5" y="191" clip-path="url(#clipPath2)" fill="none" width="120" rx="4" ry="4" height="26"/>
    </g>
    <g fill="rgb(255,204,204)" text-rendering="geometricPrecision" shape-rendering="geometricPrecision" transform="matrix(1,0,0,1,-197,-31)" stroke="rgb(255,204,204)">
      <rect x="1028" width="164" height="238" y="192.5" clip-path="url(#clipPath2)" stroke="none"/>
    </g>
    <g stroke-linecap="butt" transform="matrix(1,0,0,1,-197,-31)" text-rendering="geometricPrecision" font-family="sans-serif" shape-rendering="geometricPrecision" font-weight="bold" stroke-miterlimit="1.45">
      <text x="1034" xml:space="preserve" y="209.6387" clip-path="url(#clipPath2)" stroke="none">c2c C-backend</text>
      <rect fill="none" x="1028" width="164" height="238" y="192.5" clip-path="url(#clipPath2)"/>
    </g>
    <g fill="rgb(204,255,255)" text-rendering="geometricPrecision" shape-rendering="geometricPrecision" transform="matrix(1,0,0,1,-197,-31)" stroke="rgb(204,255,255)">
      <rect x="1049" y="232" clip-path="url(#clipPath2)" width="120" rx="4" ry="4" height="26" stroke="none"/>
    </g>
    <g text-rendering="geometricPrecision" stroke-miterlimit="1.45" shape-rendering="geometricPrecision" font-family="sans-serif" transform="matrix(1,0,0,1,-197,-31)" stroke-linecap="butt">
      <text x="1083.8428" xml:space="preserve" y="249.1543" clip-path="url(#clipPath2)" stroke="none">Makefile</text>
      <rect x="1049" y="232" clip-path="url(#clipPath2)" fill="none" width="120" rx="4" ry="4" height="26"/>
    </g>
    <g fill="rgb(153,204,0)" text-rendering="geometricPrecision" shape-rendering="geometricPrecision" transform="matrix(1,0,0,1,-197,-31)" stroke="rgb(153,204,0)">
      <rect x="1049" y="271" clip-path="url(#clipPath2)" width="120" rx="4" ry="4" height="26" stroke="none"/>
    </g>
    <g text-rendering="geometricPrecision" stroke-miterlimit="1.45" shape-rendering="geometricPrecision" font-family="sans-serif" transform="matrix(1,0,0,1,-197,-31)" stroke-linecap="butt">
      <text x="1086.752" xml:space="preserve" y="288.1543" clip-path="url(#clipPath2)" stroke="none">mylib.h</text>
      <rect x="1049" y="271" clip-path="url(#clipPath2)" fill="none" width="120" rx="4" ry="4" height="26"/>
    </g>
    <g fill="rgb(153,204,0)" text-rendering="geometricPrecision" shape-rendering="geometricPrecision" transform="matrix(1,0,0,1,-197,-31)" stroke="rgb(153,204,0)">
      <rect x="1049" y="310" clip-path="url(#clipPath2)" width="120" rx="4" ry="4" height="26" stroke="none"/>
    </g>
    <g text-rendering="geometricPrecision" stroke-miterlimit="1.45" shape-rendering="geometricPrecision" font-family="sans-serif" transform="matrix(1,0,0,1,-197,-31)" stroke-linecap="butt">
      <text x="1068.0137" xml:space="preserve" y="327.1543" clip-path="url(#clipPath2)" stroke="none">mylib_extra.h</text>
      <rect x="1049" y="310" clip-path="url(#clipPath2)" fill="none" width="120" rx="4" ry="4" height="26"/>
    </g>
    <g fill="rgb(153,204,0)" text-rendering="geometricPrecision" shape-rendering="geometricPrecision" transform="matrix(1,0,0,1,-197,-31)" stroke="rgb(153,204,0)">
      <rect x="1049" y="349" clip-path="url(#clipPath2)" width="120" rx="4" ry="4" height="26" stroke="none"/>
    </g>
    <g text-rendering="geometricPrecision" stroke-miterlimit="1.45" shape-rendering="geometricPrecision" font-family="sans-serif" transform="matrix(1,0,0,1,-197,-31)" stroke-linecap="butt">
      <text x="1070.1934" xml:space="preserve" y="366.1543" clip-path="url(#clipPath2)" stroke="none">application.h</text>
      <rect x="1049" y="349" clip-path="url(#clipPath2)" fill="none" width="120" rx="4" ry="4" height="26"/>
    </g>
    <g fill="rgb(51,153,102)" text-rendering="geometricPrecision" shape-rendering="geometricPrecision" transform="matrix(1,0,0,1,-197,-31)" stroke="rgb(51,153,102)">
      <rect x="805.5" width="164" height="119" y="505" clip-path="url(#clipPath2)" stroke="none"/>
    </g>
    <g stroke-linecap="butt" transform="matrix(1,0,0,1,-197,-31)" text-rendering="geometricPrecision" font-family="sans-serif" shape-rendering="geometricPrecision" font-weight="bold" stroke-miterlimit="1.45">
      <text x="811.5" xml:space="preserve" y="522.1387" clip-path="url(#clipPath2)" stroke="none">C application sources</text>
      <rect fill="none" x="805.5" width="164" height="119" y="505" clip-path="url(#clipPath2)"/>
    </g>
    <g fill="rgb(204,255,255)" text-rendering="geometricPrecision" shape-rendering="geometricPrecision" transform="matrix(1,0,0,1,-197,-31)" stroke="rgb(204,255,255)">
      <rect x="826.5" y="538" clip-path="url(#clipPath2)" width="120" rx="4" ry="4" height="26" stroke="none"/>
    </g>
    <g text-rendering="geometricPrecision" stroke-miterlimit="1.45" shape-rendering="geometricPrecision" font-family="sans-serif" transform="matrix(1,0,0,1,-197,-31)" stroke-linecap="butt">
      <text x="861.3428" xml:space="preserve" y="555.1543" clip-path="url(#clipPath2)" stroke="none">Makefile</text>
      <rect x="826.5" y="538" clip-path="url(#clipPath2)" fill="none" width="120" rx="4" ry="4" height="26"/>
    </g>
    <g fill="rgb(255,204,0)" text-rendering="geometricPrecision" shape-rendering="geometricPrecision" transform="matrix(1,0,0,1,-197,-31)" stroke="rgb(255,204,0)">
      <rect x="826.5" y="577" clip-path="url(#clipPath2)" width="120" rx="4" ry="4" height="26" stroke="none"/>
    </g>
    <g text-rendering="geometricPrecision" stroke-miterlimit="1.45" shape-rendering="geometricPrecision" font-family="sans-serif" transform="matrix(1,0,0,1,-197,-31)" stroke-linecap="butt">
      <text x="848.1973" xml:space="preserve" y="594.1543" clip-path="url(#clipPath2)" stroke="none">application.c</text>
      <rect x="826.5" y="577" clip-path="url(#clipPath2)" fill="none" width="120" rx="4" ry="4" height="26"/>
    </g>
    <g fill="rgb(153,204,0)" text-rendering="geometricPrecision" shape-rendering="geometricPrecision" transform="matrix(1,0,0,1,-197,-31)" stroke="rgb(153,204,0)">
      <rect x="1049" y="388" clip-path="url(#clipPath2)" width="120" rx="4" ry="4" height="26" stroke="none"/>
    </g>
    <g text-rendering="geometricPrecision" stroke-miterlimit="1.45" shape-rendering="geometricPrecision" font-family="sans-serif" transform="matrix(1,0,0,1,-197,-31)" stroke-linecap="butt">
      <text x="1070.6973" xml:space="preserve" y="405.1543" clip-path="url(#clipPath2)" stroke="none">application.c</text>
      <rect x="1049" y="388" clip-path="url(#clipPath2)" fill="none" width="120" rx="4" ry="4" height="26"/>
    </g>
    <g fill="rgb(51,153,102)" text-rendering="geometricPrecision" shape-rendering="geometricPrecision" transform="matrix(1,0,0,1,-197,-31)" stroke="rgb(51,153,102)">
      <rect x="1028" width="164" height="76" y="526.5" clip-path="url(#clipPath2)" stroke="none"/>
    </g>
    <g stroke-linecap="butt" transform="matrix(1,0,0,1,-197,-31)" text-rendering="geometricPrecision" font-family="sans-serif" shape-rendering="geometricPrecision" font-weight="bold" stroke-miterlimit="1.45">
      <text x="1034" xml:space="preserve" y="543.6387" clip-path="url(#clipPath2)" stroke="none">C application output</text>
      <rect fill="none" x="1028" width="164" height="76" y="526.5" clip-path="url(#clipPath2)"/>
    </g>
    <g fill="rgb(255,153,0)" text-rendering="geometricPrecision" shape-rendering="geometricPrecision" transform="matrix(1,0,0,1,-197,-31)" stroke="rgb(255,153,0)">
      <rect x="1049" y="562" clip-path="url(#clipPath2)" width="120" rx="4" ry="4" height="26" stroke="none"/>
    </g>
    <g stroke-linecap="butt" transform="matrix(1,0,0,1,-197,-31)" text-rendering="geometricPrecision" font-family="sans-serif" shape-rendering="geometricPrecision" font-weight="bold" stroke-miterlimit="1.45">
      <text x="1071.3242" xml:space="preserve" y="579.1543" clip-path="url(#clipPath2)" stroke="none">application</text>
      <rect x="1049" y="562" clip-path="url(#clipPath2)" fill="none" width="120" rx="4" ry="4" height="26"/>
    </g>
    <g fill="rgb(255,204,204)" text-rendering="geometricPrecision" shape-rendering="geometricPrecision" transform="matrix(1,0,0,1,-197,-31)" stroke="rgb(255,204,204)">
      <rect x="1027" width="164" height="76" y="46.6771" clip-path="url(#clipPath2)" stroke="none"/>
    </g>
    <g stroke-linecap="butt" transform="matrix(1,0,0,1,-197,-31)" text-rendering="geometricPrecision" font-family="sans-serif" shape-rendering="geometricPrecision" font-weight="bold" stroke-miterlimit="1.45">
      <text x="1033" xml:space="preserve" y="63.8158" clip-path="url(#clipPath2)" stroke="none">C2 application output</text>
      <rect fill="none" x="1027" width="164" height="76" y="46.6771" clip-path="url(#clipPath2)"/>
    </g>
    <g fill="rgb(255,153,0)" text-rendering="geometricPrecision" shape-rendering="geometricPrecision" transform="matrix(1,0,0,1,-197,-31)" stroke="rgb(255,153,0)">
      <rect x="1048" y="82.1771" clip-path="url(#clipPath2)" width="120" rx="4" ry="4" height="26" stroke="none"/>
    </g>
    <g stroke-linecap="butt" transform="matrix(1,0,0,1,-197,-31)" text-rendering="geometricPrecision" font-family="sans-serif" shape-rendering="geometricPrecision" font-weight="bold" stroke-miterlimit="1.45">
      <text x="1070.3242" xml:space="preserve" y="99.3314" clip-path="url(#clipPath2)" stroke="none">application</text>
      <rect x="1048" y="82.1771" clip-path="url(#clipPath2)" fill="none" width="120" rx="4" ry="4" height="26"/>
      <path fill="none" d="M326.6798 372 L342.8097 411.2391" stroke-width="5" clip-path="url(#clipPath2)"/>
      <path d="M349.083 426.5 L350.5636 406.4299 L333.9153 413.2735 Z" stroke-width="5" clip-path="url(#clipPath2)" stroke="none"/>
      <text x="294.1576" xml:space="preserve" y="403.4043" clip-path="url(#clipPath2)" stroke="none">c2c</text>
      <path fill="none" d="M376 292.5 L512.4637 292.5" stroke-width="5" clip-path="url(#clipPath2)"/>
      <path d="M528.9637 292.5 L510.9637 283.5 L510.9637 301.5 Z" stroke-width="5" clip-path="url(#clipPath2)" stroke="none"/>
      <text x="441.2119" xml:space="preserve" y="266.6543" clip-path="url(#clipPath2)" stroke="none">c2c</text>
      <path fill="none" d="M479.3022 426.5 L543.7921 332.1079" stroke-width="4" clip-path="url(#clipPath2)"/>
      <path d="M549.9974 323.0253 L535.0128 332.7709 L543.0164 333.2432 L546.366 340.5275 Z" stroke-width="4" clip-path="url(#clipPath2)" stroke="none"/>
      <text x="457.4236" xml:space="preserve" y="375.8326" clip-path="url(#clipPath2)" stroke="none">clang</text>
      <text x="464.2439" xml:space="preserve" y="389.8013" clip-path="url(#clipPath2)" stroke="none">gcc</text>
      <path fill="none" d="M670.0119 205.9966 L794.5869 190.2468" clip-path="url(#clipPath2)"/>
      <path d="M805.5 188.8671 L792.8422 184.4196 L794.3474 196.3249 Z" stroke="none" clip-path="url(#clipPath2)"/>
      <path fill="none" d="M670.0119 244.9919 L794.9807 206.7856" clip-path="url(#clipPath2)"/>
      <path d="M805.5 203.5696 L792.2701 201.3402 L795.7786 212.8158 Z" stroke="none" clip-path="url(#clipPath2)"/>
      <path fill="none" d="M670.0119 283.9871 L795.6027 223.0724" clip-path="url(#clipPath2)"/>
      <path d="M805.5 218.272 L792.0846 218.1103 L797.3214 228.9074 Z" stroke="none" clip-path="url(#clipPath2)"/>
      <path fill="none" d="M670.0119 322.9824 L796.3375 239.0613" clip-path="url(#clipPath2)"/>
      <path d="M805.5 232.9745 L792.1845 234.617 L798.8247 244.6124 Z" stroke="none" clip-path="url(#clipPath2)"/>
      <path fill="none" d="M969.5 227.5157 L1012.6571 253.313" stroke-width="6" clip-path="url(#clipPath2)"/>
      <path d="M1028 262.4843 L1016.2648 244.1104 L1006.2598 260.8481 Z" stroke-width="6" clip-path="url(#clipPath2)" stroke="none"/>
      <text x="970.6217" xml:space="preserve" y="274.0391" clip-path="url(#clipPath2)" stroke="none">c2c</text>
      <path fill="none" d="M670.0119 401.02 L799.5504 498.3906" clip-path="url(#clipPath2)"/>
      <path d="M808.3433 505 L802.3561 492.9936 L795.1459 502.5859 Z" stroke="none" clip-path="url(#clipPath2)"/>
      <path fill="none" d="M670.0119 323.0295 L826.5477 496.8265" clip-path="url(#clipPath2)"/>
      <path d="M833.9094 505 L830.3367 492.068 L821.4202 500.099 Z" stroke="none" clip-path="url(#clipPath2)"/>
      <path fill="none" d="M670.0119 362.0247 L815.5372 497.5047" clip-path="url(#clipPath2)"/>
      <path d="M823.5883 505 L818.8937 492.4318 L810.717 501.2148 Z" stroke="none" clip-path="url(#clipPath2)"/>
      <path fill="none" d="M969.5 564.5 L1011.5 564.5" stroke-width="5" clip-path="url(#clipPath2)"/>
      <path d="M1028 564.5 L1010 555.5 L1010 573.5 Z" stroke-width="5" clip-path="url(#clipPath2)" stroke="none"/>
      <text x="980.5215" xml:space="preserve" y="591.6699" clip-path="url(#clipPath2)" stroke="none">clang</text>
      <text x="987.3418" xml:space="preserve" y="605.6387" clip-path="url(#clipPath2)" stroke="none">gcc</text>
      <path fill="none" d="M969.5 123.3496 L1013.2805 93.9044" stroke-width="5" clip-path="url(#clipPath2)"/>
      <path d="M1026.9719 84.696 L1007.0131 87.2734 L1017.0585 102.2095 Z" stroke-width="5" clip-path="url(#clipPath2)" stroke="none"/>
      <text x="969.4466" xml:space="preserve" y="83.7939" clip-path="url(#clipPath2)" stroke="none">c2c</text>
      <path fill="none" d="M1109.4753 192.5 L1109.2402 139.1769" stroke-width="5" clip-path="url(#clipPath2)"/>
      <path d="M1109.1675 122.6771 L1100.2469 140.7166 L1118.2467 140.6372 Z" stroke-width="5" clip-path="url(#clipPath2)" stroke="none"/>
      <text x="1121.0933" xml:space="preserve" y="154.7585" clip-path="url(#clipPath2)" stroke="none">clang</text>
      <text x="1127.9136" xml:space="preserve" y="168.7272" clip-path="url(#clipPath2)" stroke="none">gcc</text>
    </g>
  </g>
</svg>
